<?xml version="1.0" encoding="UTF-8"?>
<svg width="84px" height="85px" viewBox="0 0 84 85" version="1.1" xmlns="http://www.w3.org/2000/svg" xmlns:xlink="http://www.w3.org/1999/xlink">
    <!-- Generator: Sketch 61.2 (89653) - https://sketch.com -->
    <title>开通会员图标</title>
    <desc>Created with Sketch.</desc>
    <defs>
        <linearGradient x1="50%" y1="0%" x2="50%" y2="100%" id="linearGradient-1">
            <stop stop-color="#DFD29B" offset="0%"></stop>
            <stop stop-color="#C4B376" offset="100%"></stop>
        </linearGradient>
    </defs>
    <g id="第二批2部分" stroke="none" stroke-width="1" fill="none" fill-rule="evenodd">
        <g id="积分中心" transform="translate(-30.000000, -1162.000000)" fill-rule="nonzero">
            <g id="编组-6备份" transform="translate(0.000000, 1160.000000)">
                <g id="编组-7" transform="translate(30.000000, 3.500000)">
                    <path d="M41.768617,7.10542736e-15 C64.8367872,7.10542736e-15 83.537234,18.7004468 83.537234,41.768617 C83.537234,56.6911068 75.5761809,70.4800561 62.6529257,77.941301 C49.7296705,85.4025459 33.8075635,85.4025459 20.8843083,77.941301 C7.96105316,70.4800561 -1.51345603e-12,56.6911068 -1.51345603e-12,41.7686171 C-1.51345603e-12,18.7004468 18.7004468,7.10542736e-15 41.768617,7.10542736e-15 Z" id="路径" fill="#F3ECDE"></path>
                    <path d="M55.8961577,23.5 C56.7619966,23.5 57.5041007,23.8705739 57.9988875,24.6117725 L67.5229118,38.5705638 C68.2650666,39.6823363 68.1413319,41.041158 67.1518597,41.9058812 L43.7746676,64.7588521 C42.7851448,65.7470493 41.3008858,65.7470493 40.311363,64.7588521 L16.8104869,42.0294058 C15.9446987,41.1646826 15.69728,39.6823363 16.4394348,38.6941391 L25.9634591,24.6117725 C26.4582459,23.8705739 27.3240848,23.5 28.0661889,23.5 L55.8961577,23.5 Z M51.1727373,44.5 C50.676883,44.5 50.1810795,44.7399902 49.9331777,44.9799803 L41.876066,52.4199705 L34.0668559,44.9799803 C33.6949525,44.6199951 33.199149,44.5 32.8272964,44.5 C31.2158333,44.5 30.3481772,46.4200197 31.5877368,47.6199705 L40.2646029,55.7799803 C40.3885538,55.8999754 40.6365064,56.1399655 40.8843573,56.2599606 C41.1322082,56.3799557 41.3802116,56.5 41.5041625,56.5 L42.0000168,56.5 C42.6197712,56.5 43.2395256,56.2599606 43.7353799,55.7799803 L52.4122969,47.6200197 C53.6518056,46.5399655 52.7841495,44.5 51.1727373,44.5 Z" id="形状结合" fill="url(#linearGradient-1)"></path>
                </g>
            </g>
        </g>
    </g>
</svg>