<?xml version="1.0" encoding="UTF-8"?>
<svg width="39px" height="39px" viewBox="0 0 39 39" version="1.1" xmlns="http://www.w3.org/2000/svg" xmlns:xlink="http://www.w3.org/1999/xlink">
    <!-- Generator: Sketch 61 (89581) - https://sketch.com -->
    <title>分享红按钮图标-白</title>
    <desc>Created with Sketch.</desc>
    <g id="第一批" stroke="none" stroke-width="1" fill="none" fill-rule="evenodd">
        <g id="限时折扣" transform="translate(-551.000000, -189.000000)" fill="#FFFFFF" fill-rule="nonzero">
            <path d="M570.250022,189 C571.152367,189 571.887134,189.73047 571.887134,190.637111 C571.887134,191.543753 571.156664,192.274223 570.250022,192.274223 C561.424231,192.274223 554.269926,199.428528 554.269926,208.254319 C554.269926,217.080111 561.424231,224.230119 570.250022,224.230119 C579.075814,224.230119 586.230119,217.075814 586.230119,208.250022 C586.230119,207.347678 586.960589,206.612911 587.86723,206.612911 C588.773872,206.612911 589.500045,207.347678 589.500045,208.250022 C589.500045,218.880504 580.880504,227.500045 570.250022,227.500045 C559.619541,227.500045 551,218.880504 551,208.250022 C551,197.619541 559.619541,189 570.250022,189 Z M580.158628,197.185556 C579.548471,196.553915 579.557064,195.552742 580.180112,194.933991 C580.80316,194.310944 581.804333,194.306647 582.444568,194.925398 L585.263321,197.744151 C586.114103,198.594933 586.114103,199.969935 585.263321,200.820717 L582.444568,203.63947 C581.817223,204.266815 580.798863,204.266815 580.171518,203.63947 C579.544174,203.012126 579.544174,201.993765 580.171518,201.366421 L580.648472,200.889467 L578.573079,200.889467 C572.931276,200.889467 571.014867,203.291423 571.014867,210.557447 C571.014867,211.446901 570.297288,212.16448 569.407834,212.16448 C568.51838,212.16448 567.800801,211.446901 567.800801,210.557447 C567.800801,201.572671 571.07932,197.675401 578.573079,197.675401 L580.648472,197.675401 L580.158628,197.185556 L580.158628,197.185556 Z" id="分享红按钮图标-白"></path>
        </g>
    </g>
</svg>