<?xml version="1.0" encoding="UTF-8"?>
<svg width="84px" height="85px" viewBox="0 0 84 85" version="1.1" xmlns="http://www.w3.org/2000/svg" xmlns:xlink="http://www.w3.org/1999/xlink">
    <!-- Generator: Sketch 61 (89581) - https://sketch.com -->
    <title>签到任务图标</title>
    <desc>Created with Sketch.</desc>
    <defs>
        <linearGradient x1="80.6365281%" y1="0%" x2="20.1519324%" y2="68.4606366%" id="linearGradient-1">
            <stop stop-color="#EE6588" offset="0%"></stop>
            <stop stop-color="#DC0522" offset="100%"></stop>
        </linearGradient>
    </defs>
    <g id="第二批2部分" stroke="none" stroke-width="1" fill="none" fill-rule="evenodd">
        <g id="积分中心" transform="translate(-30.000000, -1005.000000)" fill-rule="nonzero">
            <g id="编组-6" transform="translate(0.000000, 1003.000000)">
                <path d="M71.768617,3.5 C94.8367872,3.5 113.537234,22.2004468 113.537234,45.268617 C113.537234,60.1911068 105.576181,73.9800561 92.6529257,81.441301 C79.7296705,88.9025459 63.8075635,88.9025459 50.8843083,81.441301 C37.9610532,73.9800561 30,60.1911068 30,45.2686171 C30,22.2004468 48.7004468,3.5 71.768617,3.5 Z" id="路径" fill="#FAE6E8"></path>
                <path d="M86.8896601,66.6305195 L57.0409105,66.6305195 L57.0409107,66.6305195 C54.1262511,66.6271251 51.7642991,64.265173 51.7609044,61.3505134 L51.7609044,34.7225761 L51.7609044,34.7226797 C51.7642418,31.8080201 54.1261478,29.4460251 57.0408246,29.4425508 L57.6172253,29.4425508 L57.6172253,31.4921092 L57.6172253,31.4920916 C57.6215731,33.9156221 59.5848826,35.879335 62.0084218,35.8841904 L62.0084216,35.8841904 C64.4322959,35.8798315 66.3961377,33.9159788 66.4005205,31.4920916 L66.4005205,29.4425508 L77.5281506,29.4425508 L77.5281506,31.4920916 L77.5281506,31.4920724 C77.5324991,33.9159467 79.4963408,35.8797884 81.9202065,35.8841712 L81.9202063,35.8841712 C84.3440806,35.8798122 86.3079224,33.9159596 86.3123052,31.4920724 L86.3123052,29.4425508 L86.887825,29.4425508 L86.887825,29.4425508 C89.8024847,29.4459453 92.1644366,31.8078973 92.1678313,34.722557 L92.1678313,61.3504942 L92.1678313,61.3503934 C92.1644944,64.2643656 89.8036578,66.6260597 86.8896728,66.6305195 L86.8896601,66.6305195 Z M63.750016,45.6768272 L63.750016,45.6768272 C63.207492,45.675183 62.6868562,45.8906614 62.3041761,46.2752279 L62.304176,46.2752279 C61.5072294,47.0747355 61.5072294,48.3682811 62.3041761,49.167793 L68.8108985,55.673656 L68.8108985,55.673656 C69.1933238,56.0587119 69.7140468,56.2745446 70.2567384,56.2729464 L70.2567385,56.2729464 C70.5944144,56.2732457 70.9269358,56.1901156 71.2247396,56.0309373 L71.2247395,56.0309373 C71.4420457,55.9299335 71.6398461,55.7914137 71.8090594,55.6217368 L81.3878791,46.0429171 L81.3878792,46.042917 C81.7728194,45.6600539 81.9886088,45.1391156 81.9871686,44.5961962 L81.9871686,44.5962 C81.9886713,44.0535255 81.7728547,43.5328382 81.3878834,43.1503557 L81.3878834,43.1503556 C81.0052011,42.7657892 80.4845675,42.5503092 79.9420434,42.5519456 L79.9420435,42.5519456 C79.3995194,42.5503108 78.8788836,42.7657892 78.4962035,43.1503556 L70.2849088,51.3616504 L65.1985201,46.2743593 L65.1985201,46.2743593 C64.8148813,45.8897133 64.2932921,45.6745492 63.7500375,45.6768395 L63.750016,45.6768272 Z M81.9211778,33.5416216 L81.9211779,33.5416216 C80.628019,33.5401668 79.5800701,32.4922161 79.5786134,31.1990572 L79.5786134,25.3426676 L79.5786134,25.3427454 C79.5800253,24.0495865 80.6279415,23.0016033 81.9210962,23.0001036 L81.9210961,23.0001036 C83.214255,23.0015585 84.2622039,24.0495092 84.2636606,25.3426681 L84.2636606,31.1990577 L84.2636606,31.1989798 C84.2622487,32.4921387 83.2143325,33.5401219 81.9211778,33.5416216 L81.9211778,33.5416216 Z M62.0093929,33.5416216 L62.009393,33.5416216 C60.7162341,33.5401668 59.6682852,32.4922161 59.6668285,31.1990572 L59.6668285,25.3426676 L59.6668285,25.3427454 C59.6682404,24.0495865 60.7161566,23.0016033 62.0093113,23.0001036 L62.0093113,23.0001036 C63.3021265,23.0020433 64.3495383,24.0498529 64.350995,25.3426681 L64.350995,31.1990577 L64.350995,31.1989809 C64.3495834,32.4917961 63.3022039,33.5396375 62.0093887,33.5416216 L62.0093929,33.5416216 Z" id="形状" fill="url(#linearGradient-1)"></path>
            </g>
        </g>
    </g>
</svg>