<?xml version="1.0" encoding="UTF-8"?>
<svg width="45px" height="45px" viewBox="0 0 45 45" version="1.1" xmlns="http://www.w3.org/2000/svg" xmlns:xlink="http://www.w3.org/1999/xlink">
    <!-- Generator: Sketch 61 (89581) - https://sketch.com -->
    <title>拼团确认页-图标3</title>
    <desc>Created with Sketch.</desc>
    <g id="第一批" stroke="none" stroke-width="1" fill="none" fill-rule="evenodd">
        <g id="确认订单-拼团" transform="translate(-605.000000, -145.000000)" fill="#FFFFFF" fill-rule="nonzero">
            <g id="编组-10" transform="translate(605.000000, 145.000000)">
                <path d="M23.0022637,2 C11.9552915,2 3,10.9552915 3,22.0022637 C3,33.049236 11.9552915,42.0045274 23.0022637,42.0045274 C34.049236,42.0045274 43,33.0447085 43,21.9977363 C43,10.950764 34.0447085,2 23.0022637,2 Z M33.179966,17.8053198 L22.549519,28.8477646 L22.5359366,28.8613469 C22.0469723,29.3503113 21.3723826,29.5993209 20.6796831,29.5359366 C20.6117714,29.5404641 20.5438596,29.5449915 20.4759479,29.5449915 C19.8602151,29.5449915 19.2671194,29.3005093 18.8234295,28.8613469 L13.6078098,23.6457272 C13.16412,23.2020374 12.9241653,22.6179966 12.9241653,21.9932088 C12.9241653,21.3684211 13.1686474,20.7798529 13.6078098,20.3406904 C14.4318053,19.5121675 15.7176005,19.4216186 16.6457272,20.1007357 L20.4895303,22.3870968 L29.9337861,14.4323713 C30.3638936,14.0384833 30.9207697,13.8256933 31.5048104,13.8256933 C32.1295982,13.8256933 32.7181664,14.0701754 33.1573288,14.5093379 C34.0673458,15.4193548 34.0718732,16.8907753 33.179966,17.8053198 Z" id="形状"></path>
            </g>
        </g>
    </g>
</svg>