<?xml version="1.0" encoding="UTF-8"?>
<svg width="49px" height="49px" viewBox="0 0 49 49" version="1.1" xmlns="http://www.w3.org/2000/svg" xmlns:xlink="http://www.w3.org/1999/xlink">
    <!-- Generator: Sketch 61 (89581) - https://sketch.com -->
    <title>待支付</title>
    <desc>Created with Sketch.</desc>
    <g id="第二批" stroke="none" stroke-width="1" fill="none" fill-rule="evenodd">
        <g id="待支付" transform="translate(-272.000000, -162.000000)" fill="#FFFFFF" fill-rule="nonzero">
            <g id="编组-2" transform="translate(272.000000, 162.000000)">
                <path d="M23.7953402,22.5486314 L23.7953404,22.5486314 C23.1978322,22.5501623 22.6243715,22.3136134 22.2020119,21.8913829 L16.0342891,15.7297476 L16.0342891,15.7297477 C15.1400948,14.8667427 15.1155002,13.4429727 15.9793568,12.549661 C16.8432145,11.6563492 18.2683911,11.6317789 19.1625855,12.4947829 C19.1812089,12.5127567 19.1995206,12.5310502 19.2175122,12.5496554 L25.3852351,18.7112907 L25.3852353,18.7112908 C26.2633176,19.5906527 26.2615709,21.0146383 25.3813437,21.8918489 C24.9602726,22.3114769 24.390091,22.5475907 23.7953334,22.5486314 L23.7953402,22.5486314 Z M25.1316802,22.548624 L25.1316803,22.548624 C23.8883681,22.5464752 22.8822082,21.537826 22.884358,20.295741 C22.8853904,19.7015704 23.1217375,19.1319501 23.5417801,18.7112961 L29.7060898,12.5496609 L29.7060897,12.549661 C30.5699474,11.6563492 31.995124,11.6317789 32.8893184,12.4947829 C33.7835127,13.3577879 33.8081073,14.7815579 32.9442507,15.6748697 C32.9262591,15.6934747 32.9079475,15.7117683 32.8893239,15.7297422 L26.721601,21.8913775 L26.7216011,21.8913774 C26.3002931,22.3130869 25.7280948,22.5496264 25.1317008,22.548624 L25.1316802,22.548624 Z M32.5021291,25.4651313 L16.4215284,25.4651313 L16.4215283,25.4651313 C15.1782161,25.4651313 14.1703094,24.4582195 14.1703094,23.2161345 C14.1703094,21.9740495 15.1782161,20.9671376 16.4215283,20.9671376 L32.502129,20.9671376 L32.5021289,20.9671376 C33.7454411,20.9671376 34.7533478,21.9740495 34.7533478,23.2161345 C34.7533478,24.4582195 33.7454411,25.4651313 32.5021289,25.4651313 L32.5021291,25.4651313 Z M32.5021291,32.9617876 L16.4215284,32.9617876 L16.4215283,32.9617876 C15.1782161,32.9617876 14.1703094,31.9548757 14.1703094,30.7127907 C14.1703094,29.4707057 15.1782161,28.4637938 16.4215283,28.4637938 L32.502129,28.4637938 L32.5021289,28.4637938 C33.7454411,28.4637938 34.7533478,29.4707057 34.7533478,30.7127907 C34.7533478,31.9548757 33.7454411,32.9617876 32.5021289,32.9617876 L32.5021291,32.9617876 Z M24.4635102,39.2055583 L24.4635101,39.2055583 C23.220198,39.2055583 22.2122913,38.198646 22.2122913,36.9565611 L22.2122913,23.4283418 L22.2122913,23.4283422 C22.2122913,22.1862572 23.220198,21.1793453 24.4635101,21.1793453 C25.7068223,21.1793453 26.714729,22.1862572 26.714729,23.4283422 C26.714729,23.4283422 26.714729,23.4283422 26.714729,23.4283422 L26.714729,36.9565614 L26.714729,36.9565614 C26.714729,38.1986464 25.7068223,39.2055583 24.4635101,39.2055583 L24.4635102,39.2055583 Z M24.4566572,48.8005699 L24.4566571,48.8005699 C11.1813965,48.7779503 0.438074559,38.0085319 0.46067592,24.7463742 C0.466318744,21.4620842 1.1462484,18.2138775 2.45845554,15.2025086 L2.45845614,15.2025072 C4.99163951,9.36118875 9.75943787,4.7755642 15.6984812,2.46846102 L15.6984816,2.46846086 C21.6226176,0.129300928 28.2372594,0.255025766 34.0680363,2.81762019 L34.0680364,2.81762021 C35.2211867,3.28199229 35.779183,4.59233463 35.3143551,5.74434682 C34.8495242,6.896359 33.5378873,7.45380447 32.3847369,6.98943539 C32.3457354,6.97372954 32.3071821,6.95693507 32.2691222,6.93907175 L32.2691228,6.93907198 C27.5304263,4.85608023 22.1544688,4.7537674 17.3398002,6.6549513 L17.3398012,6.65495091 C12.5155105,8.52979191 8.64249879,12.2547782 6.58398113,16.9996586 L6.5839819,16.9996568 C2.28619635,26.8647417 6.79279003,38.3436957 16.6579293,42.6594479 L16.6579301,42.6594483 C21.3957231,44.7411112 26.7700744,44.843414 31.5838396,42.9435674 L31.5838391,42.9435676 C36.4081298,41.0687266 40.2811415,37.3437403 42.3396592,32.59886 L42.3396599,32.5988584 C45.3703468,25.6306647 44.0877485,17.5396072 39.0502077,11.8478167 L39.0502078,11.8478168 C38.2558575,10.892287 38.387288,9.47436876 39.3437589,8.68080249 C40.2557918,7.92410674 41.5989731,8.0037196 42.4150419,8.86284551 L42.4150436,8.86284736 C48.6148398,15.8668937 50.1940138,25.8237914 46.4651816,34.3993857 L46.4651819,34.3993848 C43.9327966,40.2400514 39.1663083,44.8255256 33.22857,47.133431 L33.2285673,47.1334321 C30.4347866,48.232573 27.4593271,48.7980565 24.456678,48.8005699 L24.4566572,48.8005699 Z" id="形状"></path>
            </g>
        </g>
    </g>
</svg>