<?xml version="1.0" encoding="UTF-8"?>
<svg width="14px" height="24px" viewBox="0 0 14 24" version="1.1" xmlns="http://www.w3.org/2000/svg" xmlns:xlink="http://www.w3.org/1999/xlink">
    <!-- Generator: Sketch 61 (89581) - https://sketch.com -->
    <title>价格排序图标1</title>
    <desc>Created with Sketch.</desc>
    <g id="第一批" stroke="none" stroke-width="1" fill="none" fill-rule="evenodd">
        <g id="商品列表" transform="translate(-411.000000, -578.000000)" fill-rule="nonzero">
            <g id="价格排序图标1" transform="translate(409.000000, 578.000000)">
                <path d="M10.0606602,1.06066017 L15.4393398,6.43933983 C16.0251263,7.02512627 16.0251263,7.97487373 15.4393398,8.56066017 C15.1580353,8.84196474 14.7765044,9 14.3786797,9 L3.62132034,9 C2.79289322,9 2.12132034,8.32842712 2.12132034,7.5 C2.12132034,7.10217527 2.2793556,6.7206444 2.56066017,6.43933983 L7.93933983,1.06066017 C8.52512627,0.474873734 9.47487373,0.474873734 10.0606602,1.06066017 Z" id="Triangle-Copy-2" fill="#C5C5C5"></path>
                <path d="M10.0606602,16.0606602 L15.4393398,21.4393398 C16.0251263,22.0251263 16.0251263,22.9748737 15.4393398,23.5606602 C15.1580353,23.8419647 14.7765044,24 14.3786797,24 L3.62132034,24 C2.79289322,24 2.12132034,23.3284271 2.12132034,22.5 C2.12132034,22.1021753 2.2793556,21.7206444 2.56066017,21.4393398 L7.93933983,16.0606602 C8.52512627,15.4748737 9.47487373,15.4748737 10.0606602,16.0606602 Z" id="Triangle-Copy-2复制" fill="#E6001B" transform="translate(9.000000, 19.500000) scale(1, -1) translate(-9.000000, -19.500000) "></path>
            </g>
        </g>
    </g>
</svg>