<?xml version="1.0" encoding="UTF-8"?>
<svg width="35px" height="35px" viewBox="0 0 35 35" version="1.1" xmlns="http://www.w3.org/2000/svg" xmlns:xlink="http://www.w3.org/1999/xlink">
    <!-- Generator: Sketch 61 (89581) - https://sketch.com -->
    <title>400</title>
    <desc>Created with Sketch.</desc>
    <g id="第二批" stroke="none" stroke-width="1" fill="none" fill-rule="evenodd">
        <g id="待支付" transform="translate(-50.000000, -1558.000000)" fill="#4A4A4A" fill-rule="nonzero">
            <g id="编组" transform="translate(50.000000, 1558.000000)">
                <path d="M34.9243504,31.0887425 C34.2031132,33.76766 29.2575019,35.9314019 23.8997442,34.5919415 C18.5419866,33.2524844 13.1842289,30.3675077 8.85681981,26.1430397 C4.5294107,21.8155627 1.74749018,16.4577209 0.40805077,10.99687 C-0.93138522,5.74207151 1.23231934,0.796368767 3.91119474,0.0751339923 C4.63243187,-0.130936556 7.4143387,-0.440041524 11.5356986,7.08153196 C12.7721032,9.24527392 11.8447994,9.14223745 9.16592437,13.4697043 C7.92951981,15.5304097 9.99019293,18.3123637 9.99019293,18.3123637 C9.9901929,18.3123637 11.4326638,20.4761056 12.9781695,22.1246584 C14.5236752,23.6701884 16.7904043,25.1126819 16.7904043,25.1126819 C16.7904043,25.1126819 19.5723111,27.1733874 21.6329877,25.9369634 C25.9603968,23.2580459 25.8573551,22.3307211 28.0210597,23.5671519 C35.4394802,27.5855332 35.1303893,30.3674632 34.9243059,31.0887322" id="路径"></path>
            </g>
        </g>
    </g>
</svg>