<?xml version="1.0" encoding="UTF-8"?>
<svg width="37px" height="37px" viewBox="0 0 37 37" version="1.1" xmlns="http://www.w3.org/2000/svg" xmlns:xlink="http://www.w3.org/1999/xlink">
    <!-- Generator: Sketch 61 (89581) - https://sketch.com -->
    <title>积分图标-白</title>
    <desc>Created with Sketch.</desc>
    <g id="第二批2部分" stroke="none" stroke-width="1" fill="none" fill-rule="evenodd">
        <g id="积分中心" transform="translate(-271.000000, -244.000000)" fill="#FFFFFF" fill-rule="nonzero">
            <path d="M289.500484,264 C300.046846,264 308,258.366398 308,253.14968 C308,247.93396 300.046846,244 289.500484,244 C278.953154,244 271,247.93396 271,253.14968 C271,258.366398 278.953154,264 289.500484,264 Z M290,247 C298.584909,247 305,250.166717 305,253 C305,255.831277 298.584909,259 290,259 C281.414096,259 275,255.831285 275,253 C275,250.166724 281.414096,247 290,247 Z M274.377612,262 L271,262 C271,267.288682 278.953154,273 289.500484,273 C300.046846,273 308,267.288682 308,262 C307.207119,262 306.612459,262 306.216018,262 C305.862099,262 305.33122,262 304.623381,262 C304.623381,264.83361 298.155734,268.002824 289.500494,268.002824 C280.844255,268.002824 274.377612,264.833617 274.377612,262 Z M274.377612,270 L271,270 C271,275.288682 278.953154,281 289.500484,281 C300.046846,281 308,275.288682 308,270 L304.623381,270 C304.623381,272.83361 298.155734,276.002824 289.500494,276.002824 C280.844255,276.002824 274.377612,272.833617 274.377612,270 Z" id="积分图标-白"></path>
        </g>
    </g>
</svg>