<?xml version="1.0" encoding="UTF-8"?>
<svg width="80px" height="80px" viewBox="0 0 80 80" version="1.1" xmlns="http://www.w3.org/2000/svg" xmlns:xlink="http://www.w3.org/1999/xlink">
    <!-- Generator: Sketch 61.2 (89653) - https://sketch.com -->
    <title>分享图标-悬浮</title>
    <desc>Created with Sketch.</desc>
    <g id="第一批" stroke="none" stroke-width="1" fill="none" fill-rule="evenodd">
        <g id="商品详情" transform="translate(-660.000000, -1294.000000)" fill-rule="nonzero">
            <g id="编组-4备份" transform="translate(660.000000, 1294.000000)">
                <rect id="矩形" fill="#000000" opacity="0.699999988" x="0" y="0" width="80" height="80" rx="5"></rect>
                <path d="M40.2500224,21 C41.1523672,21 41.8871337,21.7304696 41.8871337,22.6371113 C41.8871337,23.543753 41.1566641,24.2742226 40.2500224,24.2742226 C31.4242309,24.2742226 24.2699257,31.4285278 24.2699257,40.2543193 C24.2699257,49.0801108 31.4242309,56.2301191 40.2500224,56.2301191 C49.0758139,56.2301191 56.2301191,49.0758139 56.2301191,40.2500224 C56.2301191,39.3476776 56.9605887,38.6129111 57.8672304,38.6129111 C58.7738721,38.6129111 59.5000448,39.3476776 59.5000448,40.2500224 C59.5000448,50.8805035 50.8805035,59.5000448 40.2500224,59.5000448 C29.6195413,59.5000448 21,50.8805035 21,40.2500224 C21,29.6195413 29.6195413,21 40.2500224,21 Z M50.1586277,29.1855564 C49.5484707,28.553915 49.5570645,27.552742 50.1801121,26.9339913 C50.8031597,26.3109437 51.8043327,26.3066468 52.4445678,26.9253975 L55.2633211,29.7441508 C56.1141034,30.594933 56.1141034,31.9699346 55.2633211,32.8207169 L52.4445678,35.6394702 C51.8172234,36.2668146 50.7988628,36.2668146 50.1715183,35.6394702 C49.5441738,35.0121257 49.5441738,33.9937651 50.1715183,33.3664206 L50.648472,32.889467 L48.573079,32.889467 C42.9312755,32.889467 41.014867,35.2914229 41.014867,42.557447 C41.014867,43.4469011 40.2972881,44.1644801 39.4078339,44.1644801 C38.5183798,44.1644801 37.8008008,43.4469011 37.8008008,42.557447 C37.8008008,33.5726709 41.0793202,29.6754007 48.573079,29.6754007 L50.648472,29.6754007 L50.1586277,29.1855564 L50.1586277,29.1855564 Z" id="形状" fill="#FFFFFF"></path>
            </g>
        </g>
    </g>
</svg>