<?xml version="1.0" encoding="UTF-8"?>
<svg width="172px" height="162px" viewBox="0 0 172 162" version="1.1" xmlns="http://www.w3.org/2000/svg" xmlns:xlink="http://www.w3.org/1999/xlink">
    <!-- Generator: Sketch 61 (89581) - https://sketch.com -->
    <title>签到-灰色</title>
    <desc>Created with Sketch.</desc>
    <g id="第二批1部分" stroke="none" stroke-width="1" fill="none" fill-rule="evenodd">
        <g id="申请退款-提示" transform="translate(-290.000000, -391.000000)" fill="#C3C1C1" fill-rule="nonzero">
            <g id="编组" transform="translate(75.000000, 252.000000)">
                <g id="编组-2" transform="translate(215.000000, 139.000000)">
                    <path d="M27.8571428,11.4285714 L27.8571428,22.8571428 L73.5714286,22.8571428 L73.5714286,11.4285714 L96.4285714,11.4285714 L96.4285714,22.8571428 L142.142857,22.8571428 L142.142857,11.4285714 L165,11.4285714 L165,160 L5,160 L5,11.4285714 L27.8571428,11.4285714 Z M142.142857,45.7142858 L27.8571428,45.7142858 L27.8571428,137.142857 L142.142857,137.142857 L142.142857,45.7142858 Z M111.171429,60.4571428 L127.4,76.6857142 L79.2857142,124.685714 L48.3142858,93.8285714 L64.5428572,77.6 L79.2857142,92.4571428 L111.171429,60.4571428 Z M62.1428572,0 L62.1428572,11.4285714 L39.2857142,11.4285714 L39.2857142,0 L62.1428572,0 Z M130.714286,0 L130.714286,11.4285714 L107.857143,11.4285714 L107.857143,0 L130.714286,0 Z" id="形状结合"></path>
                </g>
            </g>
        </g>
    </g>
</svg>