<?xml version="1.0" encoding="UTF-8"?>
<svg width="55px" height="53px" viewBox="0 0 55 53" version="1.1" xmlns="http://www.w3.org/2000/svg" xmlns:xlink="http://www.w3.org/1999/xlink">
    <!-- Generator: Sketch 61 (89581) - https://sketch.com -->
    <title>导航图标-会员</title>
    <desc>Created with Sketch.</desc>
    <g id="第一批" stroke="none" stroke-width="1" fill="none" fill-rule="evenodd">
        <g id="首页" transform="translate(-444.000000, -5273.000000)" fill-rule="nonzero">
            <g id="编组-10" transform="translate(0.000000, 5256.000000)">
                <g id="Group-5" transform="translate(444.000000, 17.000000)">
                    <path d="M47.5187967,18.235947 C47.5187967,18.697144 47.6094194,19.1352241 47.7756648,19.5349872 L37.2155688,23.9930554 L29.7902962,11.0107604 C30.6363362,10.4111791 31.187728,9.41968795 31.187728,8.29747583 C31.187728,6.47580489 29.7374537,5 27.9471575,5 C26.1568613,5 24.706587,6.47574156 24.706587,8.29747583 C24.706587,9.41202456 25.2504477,10.3958523 26.0813009,10.9953703 L17.8402373,23.9853921 L8.20921069,19.5964843 C8.39051832,19.1813944 8.49620331,18.7279242 8.49620331,18.2436737 C8.49620331,16.4220028 7.04592897,14.9461979 5.2556328,14.9461979 C3.46533663,14.9461979 2,16.4142761 2,18.235947 C2,20.0345644 3.41255638,21.4949792 5.17260349,21.5334228 L10.1958145,43.5703021 C10.3847156,44.4081454 11.1173528,45 11.9633928,45 L43.9081421,45 C44.7541821,45 45.4868193,44.4081454 45.6757203,43.5703021 L50.7065248,21.5334228 L50.7594295,21.5334228 C52.5496634,21.5334228 54,20.0576813 54,18.235947 C54,16.4142127 52.5497257,14.9384712 50.7594295,14.9384712 C48.9691333,14.9384712 47.5187967,16.4142127 47.5187967,18.235947 Z M13.96361,41 C11.1082654,29.9668847 9.79402522,24.501258 10.0208896,24.6031199 C11.6344775,25.3276196 14.0548594,26.4143692 17.2820352,27.8633685 C18.1003739,28.2276149 19.070243,27.9467856 19.55524,27.1879651 L27.4053482,15 L34.4446722,27.1120518 C34.8993257,27.9013252 35.8691948,28.2276149 36.71026,27.8785012 L46,24.0156762 L42.0597742,41 L13.96361,41 Z M43.1810404,47 L11.8189596,47.0083596 C10.8109036,47.0083596 10,47.8981773 10,49.0041798 C10,50.1101823 10.8109661,51 11.8189596,51 L43.1810404,50.9916404 C44.1890964,50.9916404 45,50.1018227 45,48.9958202 C45,47.8898177 44.1890339,47 43.1810404,47 Z" id="形状" fill="#000000"></path>
                    <polygon id="路径" fill="#E6001B" points="17.0836063 41 17.0836063 35.140314 38.9336549 35.0885529 38.9336549 40.9999519"></polygon>
                </g>
            </g>
        </g>
    </g>
</svg>