<?xml version="1.0" encoding="UTF-8"?>
<svg width="45px" height="45px" viewBox="0 0 45 45" version="1.1" xmlns="http://www.w3.org/2000/svg" xmlns:xlink="http://www.w3.org/1999/xlink">
    <!-- Generator: Sketch 61 (89581) - https://sketch.com -->
    <title>拼团确认页-图标1</title>
    <desc>Created with Sketch.</desc>
    <g id="第一批" stroke="none" stroke-width="1" fill="none" fill-rule="evenodd">
        <g id="确认订单-拼团" transform="translate(-94.000000, -144.000000)" fill="#FFFFFF" fill-rule="nonzero">
            <g id="编组-7" transform="translate(94.000000, 144.000000)">
                <path d="M23.0000687,0 C28.6725907,0 33.2886536,4.57307666 33.4384755,10.2717503 L33.4422289,10.557606 L33.4413921,12.317 L34.0513232,12.3172359 C37.06599,12.4041669 39.6146898,14.600353 40.1773758,17.5960389 L43.8843461,38.7112508 C44.4257273,41.0184004 43.0147412,43.3324593 40.7328157,43.8797959 C40.3402356,43.9739646 39.9363855,44.011084 39.5334446,43.9900349 L6.53620319,43.9900349 C4.19640265,44.1518202 2.16990432,42.3652213 2.0098958,39.9995525 C1.98064939,39.5671747 2.01632117,39.1328117 2.11569819,38.7112319 L5.84010027,17.5960389 C6.40138805,14.6066221 8.94069988,12.4122829 11.9487708,12.3172359 L12.5572814,12.317 L12.5579085,10.557606 C12.5579085,4.82237011 17.0809792,0.155273192 22.7173387,0.00379493666 L23.0000687,0 Z M15.2031404,15.8013594 C13.8076182,15.7920459 12.6589835,16.8842346 12.5641754,18.2727662 L12.5579085,18.4758376 C12.5579085,19.8774716 13.6385117,21.0239307 15.0033541,21.1100464 L15.1684485,21.1152379 C16.6197917,21.1249239 17.8041012,19.9432252 17.8136805,18.4758363 C17.8232606,17.0084475 16.6544835,15.8110446 15.2031404,15.8013594 Z M30.8316887,15.8364348 C29.4453814,15.8364348 28.3114587,16.9289849 28.2262846,18.3089166 L28.2211487,18.4758367 C28.2211487,19.8774707 29.3017519,21.0239298 30.6665943,21.1100455 L30.8316887,21.1152383 C32.2734484,21.1152383 33.4422288,19.9335357 33.4422288,18.4758363 C33.4422288,17.018137 32.2734484,15.8364348 30.8316887,15.8364348 Z M23.0000814,3.51918672 C19.2338355,3.51918672 16.1661449,6.5430939 16.0425011,10.3205532 L16.0386271,10.5576051 L16.0378017,12.317 L29.9608719,12.317 L29.9615357,10.5576051 C29.9615357,6.74972053 26.9706945,3.64811435 23.2345412,3.52310359 L23.0000814,3.51918672 Z" id="形状"></path>
            </g>
        </g>
    </g>
</svg>