<?xml version="1.0" encoding="UTF-8"?>
<svg width="45px" height="45px" viewBox="0 0 45 45" version="1.1" xmlns="http://www.w3.org/2000/svg" xmlns:xlink="http://www.w3.org/1999/xlink">
    <!-- Generator: Sketch 61 (89581) - https://sketch.com -->
    <title>拼团确认页-图标2</title>
    <desc>Created with Sketch.</desc>
    <g id="第一批" stroke="none" stroke-width="1" fill="none" fill-rule="evenodd">
        <g id="确认订单-拼团" transform="translate(-350.000000, -143.000000)" fill="#FFFFFF" fill-rule="nonzero">
            <g id="编组-9" transform="translate(350.000000, 143.000000)">
                <path d="M40.6062787,2 L4.38504289,2 C2.51481883,2 0.997836111,3.48345883 1.00000232,5.31160159 L1.00000232,33.3620516 C1.00000232,35.1901944 2.52132441,36.2635227 4.39371277,36.2635227 L15.0646068,36.2635227 L20.9006577,42.3457064 L20.9071591,42.3522511 L20.9071591,42.3522511 C21.8041503,43.2176042 23.2198306,43.2156771 24.1144966,42.347888 L29.922382,36.2613554 L40.6041187,36.2613554 C42.4830127,36.2613554 44.0000023,35.19021 44.0000023,33.3598843 L44.0000023,5.31160871 C44.0021625,3.48346594 42.4808441,2 40.6062872,2 L40.6062787,2 Z M9.86354076,22.5000883 C8.01065222,22.5000883 6.5045079,21.0297188 6.5045079,19.219027 C6.5045079,17.4105182 8.01065645,15.9401487 9.86354076,15.9401487 C11.7164293,15.9401487 13.2225736,17.4127012 13.2225736,19.219027 C13.2225736,21.0297188 11.7164251,22.5000883 9.86354076,22.5000883 Z M22.5000021,22.5000883 C20.6492821,22.5000883 19.1409692,21.0297188 19.1409692,19.219027 C19.1409692,17.4105182 20.6471178,15.9401487 22.5000021,15.9401487 C24.3528907,15.9401487 25.859035,17.4127012 25.859035,19.219027 C25.859035,21.0297188 24.3528864,22.5000883 22.5000021,22.5000883 L22.5000021,22.5000883 Z M35.1364635,22.5000883 C33.2857434,22.5000883 31.7774306,21.0297188 31.7774306,19.219027 C31.7774306,17.4105182 33.2835791,15.9401487 35.1364635,15.9401487 C36.989352,15.9401487 38.4954963,17.4127012 38.4954963,19.219027 C38.4954963,21.0297188 36.9893478,22.5000883 35.1364635,22.5000883 Z" id="形状"></path>
            </g>
        </g>
    </g>
</svg>