<?xml version="1.0" encoding="UTF-8"?>
<svg width="64px" height="56px" viewBox="0 0 64 56" version="1.1" xmlns="http://www.w3.org/2000/svg" xmlns:xlink="http://www.w3.org/1999/xlink">
    <!-- Generator: Sketch 61 (89581) - https://sketch.com -->
    <title>微信支付图标</title>
    <desc>Created with Sketch.</desc>
    <g id="第一批" stroke="none" stroke-width="1" fill="none" fill-rule="evenodd">
        <g id="确认订单-有地址" transform="translate(-30.000000, -1168.000000)" fill="#3BCA72" fill-rule="nonzero">
            <g id="编组-7" transform="translate(30.000000, 1168.000000)">
                <path d="M23.2727273,35.3564155 C23.0445633,35.5845214 22.5882353,35.5845214 22.2459893,35.5845213 C21.4474154,35.5845213 20.7629233,35.1283096 20.4206774,34.4439919 L20.1925134,34.2158859 L14.3743316,21.5560081 C14.2602496,21.3279022 14.2602496,21.3279022 14.2602496,21.0997964 C14.2602496,20.5295316 14.7165776,19.9592668 15.4010695,19.9592668 C15.6292336,19.9592668 15.8573975,20.0733197 16.0855615,20.1873727 L22.9304813,25.0916497 C23.3868092,25.4338086 24.0713013,25.6619145 24.6417113,25.6619145 C24.9839573,25.6619145 25.3262033,25.5478616 25.7825312,25.4338086 L58.0677362,11.1771894 C52.1354724,4.44806519 42.6666667,0 31.942959,0 C14.3743316,0 0,11.8615071 0,26.4602851 C0,34.4439919 4.33511583,41.5152749 11.0659537,46.305499 C11.6363637,46.6476578 11.9786097,47.3319756 11.9786097,48.0162933 C11.9786097,48.2443992 11.8645277,48.472505 11.8645277,48.700611 C11.2941177,50.6395112 10.4955437,53.8329939 10.3814617,54.0610998 C10.2673798,54.2892057 10.1532977,54.6313646 10.1532977,54.8594704 C10.1532977,55.4297352 10.6096257,56 11.2941177,56 C11.5222817,56 11.7504456,55.8859471 11.9786097,55.7718941 L19.0516934,51.7800407 C19.6221034,51.5519348 20.1925134,51.323829 20.7629234,51.3238289 C21.1051694,51.3238289 21.4474154,51.4378818 21.6755794,51.5519348 C24.9839573,52.4643585 28.4064172,53.0346232 32.0570411,53.0346232 C49.6256685,53.0346232 64,41.173116 64,26.5743381 C64,22.1262729 62.745098,18.0203667 60.3493761,14.3706721 L23.3868093,35.1283096 L23.2727273,35.3564155 Z" id="路径"></path>
            </g>
        </g>
    </g>
</svg>