<?xml version="1.0" encoding="UTF-8"?>
<svg width="84px" height="85px" viewBox="0 0 84 85" version="1.1" xmlns="http://www.w3.org/2000/svg" xmlns:xlink="http://www.w3.org/1999/xlink">
    <!-- Generator: Sketch 61.2 (89653) - https://sketch.com -->
    <title>索票</title>
    <desc>Created with Sketch.</desc>
    <g id="第二批2部分" stroke="none" stroke-width="1" fill="none" fill-rule="evenodd">
        <g id="积分中心备份" transform="translate(-30.000000, -613.000000)" fill-rule="nonzero">
            <g id="编组-6备份-3" transform="translate(0.000000, 611.000000)">
                <path d="M71.768617,3.5 C94.8367872,3.5 113.537234,22.2004468 113.537234,45.268617 C113.537234,60.1911068 105.576181,73.9800561 92.6529257,81.441301 C79.7296705,88.9025459 63.8075635,88.9025459 50.8843083,81.441301 C37.9610532,73.9800561 30,60.1911068 30,45.2686171 C30,22.2004468 48.7004468,3.5 71.768617,3.5 Z" id="路径" fill="#CFFCF6"></path>
                <path d="M91,35.9957735 L89.1479698,34.2019633 L89.1479701,34.2019632 C88.4193453,34.561772 87.617894,34.748514 86.80572,34.7477234 C83.954689,34.7477234 81.6402861,32.510537 81.6402861,29.7470401 C81.6402861,28.9288235 81.8444735,28.1596856 82.2030671,27.4793924 L81.1542848,26.4640289 C79.1385674,24.5119904 75.8656667,24.5119904 73.8507908,26.4640289 L64,36 L91,36 L91,35.9957693 L91,35.9957735 Z M73,25.701475 C71.0361767,24.5659369 68.4635578,24.8037058 66.7751403,26.4537047 L57,36 L62.455155,36 L73,25.7014712 L73,25.701475 Z M96,44.886718 L96,43.3999781 C96,40.421271 93.7133809,38 90.8881583,38 L55.1118417,38 C52.286604,38 50,40.4204181 50,43.400878 L50,44.8867454 C52.9155659,45.5129718 55.1118417,48.2373556 55.1118417,51.5026253 C55.1118417,54.7678794 52.9155509,57.4922632 50,58.1185052 L50,59.6035041 C50,62.5839522 52.2866191,65 55.1118417,65 L90.8881583,65 C93.7083802,65 96,62.5839366 96,59.599122 L96,58.1132546 C93.0844341,57.4870282 90.8881583,54.7626444 90.8881583,51.4973747 C90.8881583,48.2373478 93.0844491,45.5129797 96,44.8867376 L96,44.886718 Z M67.5469523,50 L73.4530477,50 C74.3037894,50 75,50.6750406 75,51.5 L75,51.5 C74.995128,52.3298253 74.3039557,53 73.4530441,53 L67.5469487,53 L67.5469487,53 C66.696348,53 66.0053113,52.3302978 66,51.5007845 C66,50.6750406 66.6760861,50 67.5469523,50 L67.5469523,50 Z M67.6189714,56 L81.3810324,56 C82.2713787,56 83,56.6750406 83,57.5 L83,57.5 C82.9949012,58.3298253 82.2715527,59 81.3810286,59 L67.6189676,59 L67.6189676,59 C66.7287689,59 66.0055586,58.3303013 66,57.5007845 C66,56.6750406 66.70756,56 67.6189676,56 L67.6189714,56 Z M60,64 L59,64 L59,61 L60,61 L60,64 Z M60,60 L59,60 L59,57 L60,57 L60,60 Z M60,55 L59,55 L59,52 L60,52 L60,55 Z M60,51 L59,51 L59,48 L60,48 L60,51 Z M60,46 L59,46 L59,43 L60,43 L60,46 Z M60,42 L59,42 L59,39 L60,39 L60,42 Z" id="形状" fill="#3ECAB7"></path>
            </g>
        </g>
    </g>
</svg>