<?xml version="1.0" encoding="UTF-8"?>
<svg width="84px" height="85px" viewBox="0 0 84 85" version="1.1" xmlns="http://www.w3.org/2000/svg" xmlns:xlink="http://www.w3.org/1999/xlink">
    <!-- Generator: Sketch 61.2 (89653) - https://sketch.com -->
    <title>iocn关注抖音号</title>
    <desc>Created with Sketch.</desc>
    <g id="第二批2部分" stroke="none" stroke-width="1" fill="none" fill-rule="evenodd">
        <g id="积分中心备份" transform="translate(-30.000000, -1243.000000)" fill-rule="nonzero">
            <g id="编组-6备份-7" transform="translate(0.000000, 1239.000000)">
                <g id="编组-7" transform="translate(30.000000, 4.000000)">
                    <path d="M41.768617,7.10542736e-15 C64.8367872,7.10542736e-15 83.537234,18.7004468 83.537234,41.768617 C83.537234,56.6911068 75.5761809,70.4800561 62.6529257,77.941301 C49.7296705,85.4025459 33.8075635,85.4025459 20.8843083,77.941301 C7.96105316,70.4800561 -1.51345603e-12,56.6911068 -1.51345603e-12,41.7686171 C-1.51345603e-12,18.7004468 18.7004468,7.10542736e-15 41.768617,7.10542736e-15 Z" id="路径" fill="#160C1A"></path>
                    <path d="M40.9780256,19 C28.8367614,19 19,28.8450115 19,40.9917756 C19,53.1412897 28.8367614,62.9863012 40.9780256,62.9863012 C53.1137897,62.9863012 62.9533011,53.1412897 62.9533011,40.9917756 C62.9533011,28.8450115 53.1165397,19 40.9780256,19 Z M51.3592881,38.8742731 L51.3592881,38.8742731 C49.3406182,38.8831762 47.3696136,38.2611083 45.7217816,37.0950211 C45.7217816,39.630524 45.7217816,42.1605269 45.7437816,44.6960299 C45.7437816,45.0342803 45.7602816,45.3725307 45.7327816,45.7080311 L45.7327817,45.7080295 C45.5559122,48.0454936 44.3842231,50.1945738 42.5152779,51.6095364 C41.3877766,52.4345373 40.0292751,52.8992879 38.6240234,52.9350379 L38.6240236,52.9350379 C37.91842,52.9653409 37.2117852,52.908071 36.5202711,52.7645377 L36.5202704,52.7645376 C35.5190286,52.552389 34.573049,52.1337212 33.7427672,51.5352861 L33.7427666,51.5352857 C31.6843248,50.0730704 30.4925078,47.6791195 30.5665129,45.1552783 L30.566513,45.1552745 C30.6450738,42.612252 31.9952686,40.2785735 34.1607715,38.9430172 L34.1607723,38.9430168 C35.6436385,38.0258735 37.4005554,37.6562 39.1272781,37.8980155 C39.1300281,38.2197659 39.1190281,38.5415163 39.1327781,38.8605167 C39.1575281,39.2620171 39.1355281,39.6635176 39.1437781,40.0650181 L39.1437781,42.1137704 L39.1437778,42.1137704 C38.6204479,41.9438361 38.0595117,41.9266657 37.5267717,42.0642737 C36.8942709,42.2127739 36.2865202,42.4822742 35.7860196,42.9030247 L35.7860195,42.9030248 C35.4801397,43.1595567 35.2286283,43.4746473 35.0462687,43.8297759 L35.0462686,43.829776 C34.7419799,44.4376041 34.619747,45.1203869 34.6942682,45.7960283 C34.7712683,46.4505291 35.0435186,47.0665298 35.4780191,47.5670304 C35.7695194,47.9135308 36.1325199,48.1885311 36.5120203,48.4195314 C37.5570215,49.0107821 38.9182731,48.947532 39.9275243,48.3012812 C40.9037754,47.6962805 41.5362761,46.5770292 41.5390261,45.4247779 L41.5390261,35.0187658 C41.5555262,33.0305135 41.5417762,31.0422612 41.5500262,29.0567589 L45.6530309,29.0567589 C45.6420309,29.4060093 45.686031,29.7552597 45.743781,30.0990101 L45.7657811,30.0990101 C45.8757812,30.6765107 46.0902814,31.2292614 46.3542818,31.754512 C46.7722822,32.5630129 47.385533,33.2862638 48.1692839,33.7620143 C48.2160339,33.7922644 48.251784,33.8362644 48.290284,33.8747645 C48.8650347,34.2322649 49.5002854,34.5017652 50.1602862,34.6447654 C50.5480366,34.7300155 50.9467871,34.7602655 51.3427876,34.7712655 C51.3427876,35.0737659 51.3427876,35.3762662 51.3482876,35.6787666 C51.3647876,36.7430178 51.3537876,37.807269 51.3592881,38.8742703 L51.3592881,38.8742731 Z" id="形状备份" fill="#42F5EE"></path>
                    <path d="M42.9780256,21 C30.8367614,21 21,30.8450115 21,42.9917756 C21,55.1412897 30.8367614,64.9863012 42.9780256,64.9863012 C55.1137897,64.9863012 64.9533011,55.1412897 64.9533011,42.9917756 C64.9533011,30.8450115 55.1165397,21 42.9780256,21 Z M53.3592881,40.8742731 L53.3592881,40.8742731 C51.3406182,40.8831762 49.3696136,40.2611083 47.7217816,39.0950211 C47.7217816,41.630524 47.7217816,44.1605269 47.7437816,46.6960299 C47.7437816,47.0342803 47.7602816,47.3725307 47.7327816,47.7080311 L47.7327817,47.7080295 C47.5559122,50.0454936 46.3842231,52.1945738 44.5152779,53.6095364 C43.3877766,54.4345373 42.0292751,54.8992879 40.6240234,54.9350379 L40.6240236,54.9350379 C39.91842,54.9653409 39.2117852,54.908071 38.5202711,54.7645377 L38.5202704,54.7645376 C37.5190286,54.552389 36.573049,54.1337212 35.7427672,53.5352861 L35.7427666,53.5352857 C33.6843248,52.0730704 32.4925078,49.6791195 32.5665129,47.1552783 L32.566513,47.1552745 C32.6450738,44.612252 33.9952686,42.2785735 36.1607715,40.9430172 L36.1607723,40.9430168 C37.6436385,40.0258735 39.4005554,39.6562 41.1272781,39.8980155 C41.1300281,40.2197659 41.1190281,40.5415163 41.1327781,40.8605167 C41.1575281,41.2620171 41.1355281,41.6635176 41.1437781,42.0650181 L41.1437781,44.1137704 L41.1437778,44.1137704 C40.6204479,43.9438361 40.0595117,43.9266657 39.5267717,44.0642737 C38.8942709,44.2127739 38.2865202,44.4822742 37.7860196,44.9030247 L37.7860195,44.9030248 C37.4801397,45.1595567 37.2286283,45.4746473 37.0462687,45.8297759 L37.0462686,45.829776 C36.7419799,46.4376041 36.619747,47.1203869 36.6942682,47.7960283 C36.7712683,48.4505291 37.0435186,49.0665298 37.4780191,49.5670304 C37.7695194,49.9135308 38.1325199,50.1885311 38.5120203,50.4195314 C39.5570215,51.0107821 40.9182731,50.947532 41.9275243,50.3012812 C42.9037754,49.6962805 43.5362761,48.5770292 43.5390261,47.4247779 L43.5390261,37.0187658 C43.5555262,35.0305135 43.5417762,33.0422612 43.5500262,31.0567589 L47.6530309,31.0567589 C47.6420309,31.4060093 47.686031,31.7552597 47.743781,32.0990101 L47.7657811,32.0990101 C47.8757812,32.6765107 48.0902814,33.2292614 48.3542818,33.754512 C48.7722822,34.5630129 49.385533,35.2862638 50.1692839,35.7620143 C50.2160339,35.7922644 50.251784,35.8362644 50.290284,35.8747645 C50.8650347,36.2322649 51.5002854,36.5017652 52.1602862,36.6447654 C52.5480366,36.7300155 52.9467871,36.7602655 53.3427876,36.7712655 C53.3427876,37.0737659 53.3427876,37.3762662 53.3482876,37.6787666 C53.3647876,38.7430178 53.3537876,39.807269 53.3592881,40.8742703 L53.3592881,40.8742731 Z" id="形状备份-2" fill="#FF4F6D"></path>
                    <path d="M41.9780256,20 C29.8367614,20 20,29.8450115 20,41.9917756 C20,54.1412897 29.8367614,63.9863012 41.9780256,63.9863012 C54.1137897,63.9863012 63.9533011,54.1412897 63.9533011,41.9917756 C63.9533011,29.8450115 54.1165397,20 41.9780256,20 Z M52.3592881,39.8742731 L52.3592881,39.8742731 C50.3406182,39.8831762 48.3696136,39.2611083 46.7217816,38.0950211 C46.7217816,40.630524 46.7217816,43.1605269 46.7437816,45.6960299 C46.7437816,46.0342803 46.7602816,46.3725307 46.7327816,46.7080311 L46.7327817,46.7080295 C46.5559122,49.0454936 45.3842231,51.1945738 43.5152779,52.6095364 C42.3877766,53.4345373 41.0292751,53.8992879 39.6240234,53.9350379 L39.6240236,53.9350379 C38.91842,53.9653409 38.2117852,53.908071 37.5202711,53.7645377 L37.5202704,53.7645376 C36.5190286,53.552389 35.573049,53.1337212 34.7427672,52.5352861 L34.7427666,52.5352857 C32.6843248,51.0730704 31.4925078,48.6791195 31.5665129,46.1552783 L31.566513,46.1552745 C31.6450738,43.612252 32.9952686,41.2785735 35.1607715,39.9430172 L35.1607723,39.9430168 C36.6436385,39.0258735 38.4005554,38.6562 40.1272781,38.8980155 C40.1300281,39.2197659 40.1190281,39.5415163 40.1327781,39.8605167 C40.1575281,40.2620171 40.1355281,40.6635176 40.1437781,41.0650181 L40.1437781,43.1137704 L40.1437778,43.1137704 C39.6204479,42.9438361 39.0595117,42.9266657 38.5267717,43.0642737 C37.8942709,43.2127739 37.2865202,43.4822742 36.7860196,43.9030247 L36.7860195,43.9030248 C36.4801397,44.1595567 36.2286283,44.4746473 36.0462687,44.8297759 L36.0462686,44.829776 C35.7419799,45.4376041 35.619747,46.1203869 35.6942682,46.7960283 C35.7712683,47.4505291 36.0435186,48.0665298 36.4780191,48.5670304 C36.7695194,48.9135308 37.1325199,49.1885311 37.5120203,49.4195314 C38.5570215,50.0107821 39.9182731,49.947532 40.9275243,49.3012812 C41.9037754,48.6962805 42.5362761,47.5770292 42.5390261,46.4247779 L42.5390261,36.0187658 C42.5555262,34.0305135 42.5417762,32.0422612 42.5500262,30.0567589 L46.6530309,30.0567589 C46.6420309,30.4060093 46.686031,30.7552597 46.743781,31.0990101 L46.7657811,31.0990101 C46.8757812,31.6765107 47.0902814,32.2292614 47.3542818,32.754512 C47.7722822,33.5630129 48.385533,34.2862638 49.1692839,34.7620143 C49.2160339,34.7922644 49.251784,34.8362644 49.290284,34.8747645 C49.8650347,35.2322649 50.5002854,35.5017652 51.1602862,35.6447654 C51.5480366,35.7300155 51.9467871,35.7602655 52.3427876,35.7712655 C52.3427876,36.0737659 52.3427876,36.3762662 52.3482876,36.6787666 C52.3647876,37.7430178 52.3537876,38.807269 52.3592881,39.8742703 L52.3592881,39.8742731 Z" id="形状" fill="#FFFFFF"></path>
                </g>
            </g>
        </g>
    </g>
</svg>