<?xml version="1.0" encoding="UTF-8"?>
<svg width="84px" height="85px" viewBox="0 0 84 85" version="1.1" xmlns="http://www.w3.org/2000/svg" xmlns:xlink="http://www.w3.org/1999/xlink">
    <!-- Generator: Sketch 61.2 (89653) - https://sketch.com -->
    <title>icon到场</title>
    <desc>Created with Sketch.</desc>
    <defs>
        <linearGradient x1="50%" y1="0%" x2="50%" y2="100%" id="linearGradient-1">
            <stop stop-color="#FFFCF8" offset="0%"></stop>
            <stop stop-color="#FFDDC3" offset="100%"></stop>
        </linearGradient>
    </defs>
    <g id="第二批2部分" stroke="none" stroke-width="1" fill="none" fill-rule="evenodd">
        <g id="积分中心备份" transform="translate(-30.000000, -1555.000000)" fill-rule="nonzero">
            <g id="编组-6备份-9" transform="translate(0.000000, 1553.000000)">
                <path d="M71.768617,4 C94.8367872,4 113.537234,22.7004468 113.537234,45.768617 C113.537234,60.6911068 105.576181,74.4800561 92.6529257,81.941301 C79.7296705,89.4025459 63.8075635,89.4025459 50.8843083,81.941301 C37.9610532,74.4800561 30,60.6911068 30,45.7686171 C30,22.7004468 48.7004468,4 71.768617,4 Z" id="路径" fill="url(#linearGradient-1)"></path>
                <g id="到场" transform="translate(57.000000, 25.000000)" fill="#FF7000">
                    <path d="M14.9851542,43.9120511 C14.9851542,43.9120511 0,27.0432737 0,17.9981264 C0,0.188590063 14.9851542,0 14.9851542,0 C14.9851542,0 30.1588984,0.188571587 30.1588984,17.9017474 C30.1588984,27.2318637 14.9851542,43.9120511 14.9851542,43.9120511 L14.9851542,43.9120511 Z M15.0773446,9.04514724 C11.7459134,9.04514724 9.04723209,11.7459125 9.04723209,15.0752597 C9.04723209,18.4066909 11.7479973,21.1074777 15.0773446,21.1074777 C18.4066832,21.1074777 21.1074571,18.4046156 21.1074571,15.0752597 C21.1074571,11.7459211 18.4066918,9.04514724 15.0773446,9.04514724 L15.0773446,9.04514724 Z" id="形状"></path>
                </g>
            </g>
        </g>
    </g>
</svg>