<?xml version="1.0" encoding="UTF-8"?>
<svg width="84px" height="85px" viewBox="0 0 84 85" version="1.1" xmlns="http://www.w3.org/2000/svg" xmlns:xlink="http://www.w3.org/1999/xlink">
    <!-- Generator: Sketch 61.2 (89653) - https://sketch.com -->
    <title>icon完善用户信息</title>
    <desc>Created with Sketch.</desc>
    <defs>
        <linearGradient x1="50%" y1="0%" x2="50%" y2="100%" id="linearGradient-1">
            <stop stop-color="#FEFAED" offset="0%"></stop>
            <stop stop-color="#F2ECDA" offset="100%"></stop>
        </linearGradient>
        <linearGradient x1="50%" y1="0%" x2="50%" y2="100%" id="linearGradient-2">
            <stop stop-color="#E2D49E" offset="0%"></stop>
            <stop stop-color="#D1BE81" offset="100%"></stop>
        </linearGradient>
    </defs>
    <g id="第二批2部分" stroke="none" stroke-width="1" fill="none" fill-rule="evenodd">
        <g id="积分中心备份" transform="translate(-30.000000, -458.000000)" fill-rule="nonzero">
            <g id="编组-6备份-2" transform="translate(0.000000, 454.000000)">
                <g id="编组-7" transform="translate(30.000000, 4.000000)">
                    <path d="M41.768617,0 C64.8367872,0 83.537234,18.7004468 83.537234,41.768617 C83.537234,56.6911068 75.5761809,70.4800561 62.6529257,77.941301 C49.7296705,85.4025459 33.8075635,85.4025459 20.8843083,77.941301 C7.96105316,70.4800561 -1.36424205e-12,56.6911068 -1.36424205e-12,41.7686171 C-1.36424205e-12,18.7004468 18.7004468,0 41.768617,0 Z" id="路径" fill="url(#linearGradient-1)"></path>
                    <path d="M41.9570322,26.0076632 C47.2615736,26.0072235 52.5651266,26.0048491 57.869582,26.0107851 C58.4685885,26.0112687 59.0738385,26.0160615 59.6663395,26.093757 C62.5248905,26.4687792 63.9361148,28.0274346 63.944468,30.9113329 C63.966497,38.0833412 63.9683878,45.2556074 63.9447318,52.4273579 C63.9344427,55.5507385 61.8642341,57.6852781 58.7483,57.6943445 C47.5400604,57.7271463 36.3316489,57.7302242 25.1233663,57.6919701 C22.016692,57.6815052 20.0485362,55.6920732 20.030876,52.5966439 C19.9902475,45.4586238 19.9895,38.3195726 20.0299086,31.1812088 C20.0495634,27.7127028 21.7666904,26.0349645 25.2450319,26.0158004 C30.815722,25.9856809 36.386455,26.0079298 41.9570162,26.007666 L41.9570162,26.007666 L41.9570162,26.007666 L41.9570322,26.0076632 Z M37.1205071,50.3980912 C37.1205071,48.9794325 37.1862425,47.679145 37.1037984,46.3883967 C37.0007321,44.7773717 35.7571218,43.3132958 34.1567789,43.1885488 C32.074614,43.0264743 29.9628092,43.0243199 27.8790373,43.1699054 C26.437911,43.2705534 25.3429199,44.255134 25.0915008,45.670363 C24.8175661,47.2099824 24.900758,48.8133975 24.828075,50.3980912 L37.1205463,50.3980912 L37.1205463,50.3980912 L37.1205463,50.3980912 L37.1205071,50.3980912 Z M34.7482445,36.8487344 C34.7419816,34.7931242 33.1306907,33.2021958 31.0437348,33.1915895 C28.9288534,33.1808699 27.2800589,34.8105824 27.2838337,36.908272 C27.2877095,38.992813 28.9618319,40.648822 31.0447016,40.6289876 C33.1412009,40.609157 34.7546449,38.9622064 34.7482445,36.8487344 L34.7482445,36.8487344 L34.7482445,36.8487344 L34.7482445,36.8487344 Z M49.2822501,45.612436 C51.2176422,45.612436 53.1520718,45.6229449 55.0872491,45.6081709 C56.2020703,45.6000364 56.7312525,45.1772196 56.7726272,44.3262612 C56.8176087,43.3981394 56.322065,42.8516751 55.1766414,42.8411649 C51.2737981,42.8044058 47.3699838,42.8038781 43.4676863,42.8456939 C42.3336924,42.8579176 41.8432508,43.4172176 41.8860349,44.3508823 C41.9252563,45.2111607 42.4302562,45.6024088 43.5778325,45.6093525 C45.4791074,45.6210926 47.3808206,45.6124304 49.2822845,45.6124304 L49.2822845,45.6124304 L49.2822845,45.6124304 L49.2822501,45.612436 Z M49.3009375,50.6368637 L49.3009375,50.6440309 C51.2334722,50.6440309 53.1657447,50.6573539 55.098288,50.6390182 C56.2085373,50.6282455 56.7597454,50.1788697 56.7736415,49.3501605 C56.7870524,48.5295896 56.2169334,47.9418366 55.1853041,47.933969 C51.254716,47.9036296 47.3234317,47.9145781 43.3928607,47.9461488 C43.0293146,47.9492707 42.5201386,48.1079594 42.3409157,48.3720886 C42.0911209,48.7399875 41.8580796,49.4185379 42.0354106,49.7056167 C42.300507,50.1339748 42.9176718,50.5708623 43.4060079,50.5957498 C45.3667301,50.6946829 47.3353628,50.6368619 49.3009405,50.6368619 L49.3009405,50.6368619 L49.3009405,50.6368619 L49.3009375,50.6368637 Z M51.4081661,40.6363911 C52.6379719,40.6363911 53.8678163,40.6507254 55.0973126,40.632126 C56.1356709,40.6160769 56.7862958,40.106725 56.7669083,39.3207999 C56.7415815,38.2969952 55.9637914,38.0537101 55.1793186,38.0402996 C52.6210422,37.9958896 50.0613048,37.9958896 47.5032003,38.0415307 C46.5154979,38.0592068 45.8784984,38.673735 45.9795868,39.3898788 C46.1100903,40.3115381 46.7499873,40.640215 47.6190613,40.6375767 C48.8821077,40.6337513 50.1451498,40.6366094 51.4081532,40.6363895 L51.4081532,40.6363895 L51.4081532,40.6363895 L51.4081661,40.6363911 Z" id="形状" fill="url(#linearGradient-2)"></path>
                </g>
            </g>
        </g>
    </g>
</svg>