<?xml version="1.0" encoding="UTF-8"?>
<svg width="84px" height="85px" viewBox="0 0 84 85" version="1.1" xmlns="http://www.w3.org/2000/svg" xmlns:xlink="http://www.w3.org/1999/xlink">
    <!-- Generator: Sketch 61.2 (89653) - https://sketch.com -->
    <title>领券与邀好友领券</title>
    <desc>Created with Sketch.</desc>
    <defs>
        <linearGradient x1="50%" y1="0%" x2="50%" y2="100%" id="linearGradient-1">
            <stop stop-color="#FFFCF8" offset="0%"></stop>
            <stop stop-color="#FFDDC3" offset="100%"></stop>
        </linearGradient>
    </defs>
    <g id="第二批2部分" stroke="none" stroke-width="1" fill="none" fill-rule="evenodd">
        <g id="积分中心备份" transform="translate(-30.000000, -770.000000)" fill-rule="nonzero">
            <g id="编组-6备份-4" transform="translate(0.000000, 768.000000)">
                <path d="M71.768617,4 C94.8367872,4 113.537234,22.7004468 113.537234,45.768617 C113.537234,60.6911068 105.576181,74.4800561 92.6529257,81.941301 C79.7296705,89.4025459 63.8075635,89.4025459 50.8843083,81.941301 C37.9610532,74.4800561 30,60.6911068 30,45.7686171 C30,22.7004468 48.7004468,4 71.768617,4 Z" id="路径" fill="url(#linearGradient-1)"></path>
                <g id="券" transform="translate(52.000000, 30.000000)" fill="#FF7000">
                    <path d="M25.4036548,18.9547611 C24.7011661,18.9547611 24.1738958,19.5330135 24.1738958,20.1694056 C24.1738958,20.8633508 24.7596591,21.3838392 25.4036548,21.3838392 C26.0480778,21.3838392 26.6338411,20.8634074 26.6338411,20.1694056 C26.6338411,19.475198 26.0481299,18.9547611 25.4036548,18.9547611 Z M13.9834849,12.9398426 C14.6861872,12.9398426 15.213244,12.4194108 15.213244,11.725409 C15.213244,11.0312014 14.62796,10.5107645 13.9834849,10.5107645 C13.3394892,10.5107645 12.7535122,11.0311963 12.7535122,11.725409 C12.7535122,12.4194108 13.2809389,12.9398426 13.9834849,12.9398426 L13.9834849,12.9398426 Z M38.8287912,6.07269276 C39.4730006,6.07269276 40,5.55226093 40,4.91581735 L40,1.15661296 C40,0.520380373 39.4730006,0 38.8287912,0 L1.17120875,0 C0.526999384,0 0,0.520380373 0,1.15661296 L0,5.32071603 C0,5.95710814 0.526999384,6.47759143 1.17120875,6.47759143 C1.81541812,6.47759143 2.34268326,6.99802327 2.34268326,7.63420439 C2.34268326,8.27059651 1.81541291,8.7910798 1.17120875,8.7910798 C0.526999384,8.7910798 0,9.31151163 0,9.94769276 L0,13.649128 C0,14.2855716 0.526999384,14.805741 1.17120875,14.805741 C1.81541812,14.805741 2.34268326,15.3263838 2.34268326,15.9626164 C2.34268326,16.598638 1.81541291,17.1194918 1.17120875,17.1194918 C0.526999384,17.1194918 0,17.6399236 0,18.2761047 L0,21.9198223 C0,22.5557924 0.526999384,23.0762243 1.17120875,23.0762243 C1.81541812,23.0762243 2.34268326,23.5970781 2.34268326,24.2330997 C2.34268326,24.8692808 1.81541291,25.3899751 1.17120875,25.3899751 C0.526999384,25.3899751 0,25.9105664 0,26.546588 L0,29.8431246 C0,30.4793572 0.526999384,31 1.17120875,31 L38.7700117,31 C39.4144347,31 39.9414862,30.4794086 39.9414862,29.8431246 L39.9414862,26.0837092 C39.9414862,25.4475281 39.4144868,24.9270963 38.7700117,24.9270963 C38.1259639,24.9270963 37.5988029,24.4066644 37.5988029,23.7702208 C37.5988029,23.1342507 38.1259639,22.6136079 38.7700117,22.6136079 C39.4144347,22.6136079 39.9414862,22.0931761 39.9414862,21.4567325 L39.9414862,17.8133288 C39.9414862,17.1773072 39.4144868,16.6567159 38.7700117,16.6567159 C38.1259639,16.6567159 37.5988029,16.136284 37.5988029,15.5001029 C37.5988029,14.8638703 38.1259639,14.3432275 38.7700117,14.3432275 C39.4144347,14.3432275 39.9414862,13.8225847 39.9414862,13.1866146 L39.9414861,9.5428404 C39.9414861,8.90665927 39.4144868,8.38622744 38.7700116,8.38622744 C38.1259638,8.38622744 37.5988029,7.86579561 37.5988029,7.22935203 C37.5988029,6.59317091 38.1260159,6.07268761 38.8287756,6.07268761 L38.8287912,6.07269276 Z M13.9969292,7.98133391 C15.9881545,7.98133391 17.5693715,9.54305653 17.5693715,11.5094668 C17.5693715,13.4758771 15.9296563,15.0371263 13.9969292,15.0371263 C12.0644678,15.0371263 10.4244869,13.4758257 10.4244869,11.5094668 C10.4244869,9.54284555 12.0059697,7.98133391 13.9969292,7.98133391 L13.9969292,7.98133391 Z M25.4171512,23.5969134 C23.4261917,23.5969134 21.8449746,22.0354018 21.8449746,20.0689914 C21.8449746,18.1025811 23.4846898,16.5408585 25.4171512,16.5408585 C27.3498262,16.5408585 28.9898071,18.1023702 28.9898071,20.0689914 C28.9898071,22.0353503 27.4083243,23.5969134 25.4171512,23.5969134 Z M28.638297,8.61732978 L13.0014755,24.0594371 C12.7669565,24.29077 12.4744761,24.4065157 12.1815111,24.4065157 C11.8887623,24.4065157 11.5959614,24.29077 11.3617603,24.0594371 C10.8932554,23.5968238 10.8932554,22.9028242 11.3617603,22.4402129 L26.9983734,6.99800268 C27.4670914,6.5353364 28.1698479,6.5353364 28.6383543,6.99800268 C29.1069655,7.46087944 29.1069655,8.1546671 28.638301,8.61733493 L28.638297,8.61732978 Z" id="形状"></path>
                </g>
            </g>
        </g>
    </g>
</svg>