<?xml version="1.0" encoding="UTF-8"?>
<svg width="84px" height="85px" viewBox="0 0 84 85" version="1.1" xmlns="http://www.w3.org/2000/svg" xmlns:xlink="http://www.w3.org/1999/xlink">
    <!-- Generator: Sketch 61.2 (89653) - https://sketch.com -->
    <title>icon下单</title>
    <desc>Created with Sketch.</desc>
    <defs>
        <linearGradient x1="50%" y1="0%" x2="50%" y2="100%" id="linearGradient-1">
            <stop stop-color="#FDF4F5" offset="0%"></stop>
            <stop stop-color="#FAE6E8" offset="100%"></stop>
        </linearGradient>
        <linearGradient x1="81.3631321%" y1="0%" x2="19.4440283%" y2="68.4606366%" id="linearGradient-2">
            <stop stop-color="#EE6588" offset="0%"></stop>
            <stop stop-color="#DC0522" offset="100%"></stop>
        </linearGradient>
    </defs>
    <g id="第二批2部分" stroke="none" stroke-width="1" fill="none" fill-rule="evenodd">
        <g id="积分中心备份" transform="translate(-30.000000, -2026.000000)" fill-rule="nonzero">
            <g id="编组-6备份-12" transform="translate(0.000000, 2024.000000)">
                <path d="M71.768617,4 C94.8367872,4 113.537234,22.7004468 113.537234,45.768617 C113.537234,60.6911068 105.576181,74.4800561 92.6529257,81.941301 C79.7296705,89.4025459 63.8075635,89.4025459 50.8843083,81.941301 C37.9610532,74.4800561 30,60.6911068 30,45.7686171 C30,22.7004468 48.7004468,4 71.768617,4 Z" id="路径" fill="url(#linearGradient-1)"></path>
                <path d="M67.314123,30.924153 L75.7230381,30.924153 C76.7040745,30.924153 77.544966,30.0832615 77.544966,28.9620765 C77.544966,27.8408915 76.844223,27 75.7230381,27 L67.314123,27 C66.3330866,27 65.4921951,27.8408915 65.4921951,28.9620765 C65.4921951,30.0832615 66.3330866,30.924153 67.314123,30.924153 Z M84.8326591,28.4014822 L80.6282016,28.4014822 L80.6282016,29.1022251 C80.6282016,30.7840044 79.366868,32.4657837 77.9653822,32.4657837 L65.2118831,32.4657837 C63.6702524,32.4657837 62.4089151,30.7840044 62.4089151,29.1022251 L62.4089151,28.4014822 L58.2044575,28.4014822 C54.8408989,28.4014822 54,30.2234101 54,33.0263928 L54,60.2151666 C54,63.1582795 55.2613336,64.8400773 58.4847473,64.8400773 L84.552325,64.8400773 C87.7757351,64.8400773 89.4575255,63.5787437 89.4575255,60.2151666 L89.4575255,33.0263928 C89.4575255,30.2234248 87.9158947,28.4014822 84.8326148,28.4014822 L84.8326591,28.4014822 Z M80.6282016,55.1698028 L62.4089225,55.1698028 C61.7081796,55.1698028 61.0074403,54.3289112 61.0074403,53.628172 C61.0074403,52.9274291 61.5680347,52.3668384 62.2687739,52.3668384 L80.3478896,52.3668384 C81.0486326,52.3668384 81.6092232,52.9274328 81.6092232,53.628172 C81.7493714,54.3289149 81.1887774,55.1698028 80.6281868,55.1698028 L80.6282016,55.1698028 Z M80.6282016,48.0222471 L62.5490859,48.0222471 C61.8483429,48.0222471 61.4279009,47.3215042 61.4279009,46.6207649 C61.4279009,45.920022 61.9884952,45.3594314 62.6892344,45.3594314 L80.7683502,45.3594314 C81.4690931,45.3594314 82.0296837,45.9200257 82.0296837,46.6207649 C82.0296837,47.3215079 81.3289408,48.0222471 80.6282016,48.0222471 Z M80.6282016,40.5944017 L62.5490859,40.5944017 C61.8483429,40.5944017 61.4279009,39.8936587 61.4279009,39.1929195 C61.4279009,38.4921766 61.9884952,37.9315859 62.6892344,37.9315859 L80.7683502,37.9315859 C81.4690931,37.9315859 82.0296837,38.4921803 82.0296837,39.1929195 C82.0296837,39.8936624 81.3289408,40.5944017 80.6282016,40.5944017 Z" id="形状" fill="url(#linearGradient-2)"></path>
            </g>
        </g>
    </g>
</svg>