<?xml version="1.0" encoding="UTF-8"?>
<svg width="84px" height="85px" viewBox="0 0 84 85" version="1.1" xmlns="http://www.w3.org/2000/svg" xmlns:xlink="http://www.w3.org/1999/xlink">
    <!-- Generator: Sketch 61.2 (89653) - https://sketch.com -->
    <title>iocn预约爆品</title>
    <desc>Created with Sketch.</desc>
    <defs>
        <linearGradient x1="50%" y1="0%" x2="50%" y2="100%" id="linearGradient-1">
            <stop stop-color="#FDF4F5" offset="0%"></stop>
            <stop stop-color="#FAE6E8" offset="100%"></stop>
        </linearGradient>
        <linearGradient x1="85.7196018%" y1="6.11353444%" x2="15.1996764%" y2="66.2034418%" id="linearGradient-2">
            <stop stop-color="#EE6588" offset="0%"></stop>
            <stop stop-color="#DC0522" offset="100%"></stop>
        </linearGradient>
    </defs>
    <g id="第二批2部分" stroke="none" stroke-width="1" fill="none" fill-rule="evenodd">
        <g id="积分中心备份" transform="translate(-30.000000, -1084.000000)" fill-rule="nonzero">
            <g id="编组-6备份-6" transform="translate(0.000000, 1082.000000)">
                <g id="编组-7" transform="translate(30.000000, 3.500000)">
                    <path d="M41.768617,7.10542736e-15 C64.8367872,7.10542736e-15 83.537234,18.7004468 83.537234,41.768617 C83.537234,56.6911068 75.5761809,70.4800561 62.6529257,77.941301 C49.7296705,85.4025459 33.8075635,85.4025459 20.8843083,77.941301 C7.96105316,70.4800561 -1.51345603e-12,56.6911068 -1.51345603e-12,41.7686171 C-1.51345603e-12,18.7004468 18.7004468,7.10542736e-15 41.768617,7.10542736e-15 Z" id="路径" fill="url(#linearGradient-1)"></path>
                    <path d="M55.1363907,41.9572882 C57.9297159,41.9572882 60.5647628,43.0024354 62.5925253,44.9074563 L62.8428001,45.1500492 C64.8950741,47.1884123 66.0453241,49.9638996 66.0366477,52.8564587 C66.0366477,55.6508389 64.9915125,58.2849152 63.086492,60.3125983 L62.8438992,60.562868 C60.8870706,62.533051 58.2509084,63.6719287 55.4839952,63.7521667 L55.1374947,63.7567061 C52.36074,63.7641917 49.6918861,62.7049839 47.6782363,60.8057363 L47.4299816,60.5639709 C45.3780058,58.5254934 44.2281439,55.7499571 44.2372234,52.8575615 C44.2372234,50.0631812 45.2823678,47.4291049 47.1873886,45.4004459 L47.4299812,45.1500493 C49.4683893,43.0979714 52.2439542,41.9480891 55.1363907,41.9572882 Z M50.968316,22.5 C51.6156549,22.5 52.1418897,23.0262348 52.1418897,23.6724706 L52.1418897,25.2798056 L55.989583,25.2798056 C58.4684279,25.2828385 60.4771718,27.2915848 60.480195,29.7704175 L60.480195,38.7428578 L24.3449411,38.7428578 L24.3449411,56.4873893 C24.3449411,57.6708701 25.3082382,58.6341713 26.491723,58.6341713 L41.329846,58.6341713 C41.9725152,58.63157 42.4956124,59.1504458 42.4982107,59.7931151 C42.4992715,60.0551826 42.4118889,60.3085835 42.2522844,60.5132952 L42.1665387,60.6114084 C41.937821,60.8444027 41.6255106,60.9763822 41.2990202,60.9780123 L26.4906121,60.9780123 C24.0117672,60.9749715 22.0030234,58.966225 22,56.4873924 L22,29.7705442 C22.0029648,27.2916992 24.0116567,25.2829146 26.4904894,25.2798096 L30.3381829,25.2798096 L30.3381829,23.6724747 C30.3383065,23.0262389 30.8645443,22.5 31.5118791,22.5 C32.159218,22.5 32.6854528,23.0262348 32.6854528,23.6724706 L32.6854528,25.2798056 L49.7958454,25.2798056 L49.7958454,23.6724706 C49.7958454,23.0262348 50.3220802,22.5 50.968316,22.5 Z M55.1364126,47.5148519 C54.4901767,47.5148519 53.9639215,48.0410867 53.9639215,48.6884256 L53.9639215,54.030051 L59.3066704,54.030051 C59.9529062,54.030051 60.479141,53.5038162 60.479141,52.8575804 C60.479141,52.2113445 59.9529062,51.6851098 59.3066704,51.6851098 L56.3088832,51.6851098 L56.3088832,48.6884256 C56.3088832,48.0410867 55.7826484,47.5148519 55.1364126,47.5148519 Z M37.0692922,51.6840905 C37.7166311,51.6840905 38.2428659,52.2103253 38.2428659,52.8565611 C38.2428659,53.5039 37.7166311,54.0290317 37.0692922,54.0290317 L30.1214227,54.0290317 C29.4743862,54.0278201 28.9501614,53.5035936 28.9489521,52.8565611 C28.9489521,52.2103253 29.4751869,51.6840905 30.1214227,51.6840905 L37.0692922,51.6840905 Z M37.0692922,43.3457892 C37.7166311,43.3457892 38.2428659,43.872024 38.2428659,44.5182598 C38.2428659,45.1644956 37.7166311,45.6907304 37.0692922,45.6907304 L30.1214227,45.6907304 C29.4743862,45.6895187 28.9501614,45.1652923 28.9489521,44.5182598 C28.9489521,43.872024 29.4751869,43.3457892 30.1214227,43.3457892 L37.0692922,43.3457892 Z" id="形状" fill="url(#linearGradient-2)"></path>
                </g>
            </g>
        </g>
    </g>
</svg>