<?xml version="1.0" encoding="UTF-8"?>
<svg width="37px" height="37px" viewBox="0 0 37 37" version="1.1" xmlns="http://www.w3.org/2000/svg" xmlns:xlink="http://www.w3.org/1999/xlink">
    <!-- Generator: Sketch 61 (89581) - https://sketch.com -->
    <title>积分图标-黑大</title>
    <desc>Created with Sketch.</desc>
    <g id="第二批2部分" stroke="none" stroke-width="1" fill="none" fill-rule="evenodd">
        <g id="积分明细-收入" transform="translate(-271.000000, -213.000000)" fill="#000000" fill-rule="nonzero">
            <g id="编组" transform="translate(271.000000, 178.000000)">
                <path d="M18.5004837,55 C29.0468455,55 37,49.366398 37,44.1496804 C37,38.9339596 29.0468455,35 18.5004837,35 C7.95315449,35 0,38.9339596 0,44.1496804 C0,49.366398 7.95315449,55 18.5004837,55 Z M19,38 C27.5849086,38 34,41.166717 34,44 C34,46.8312774 27.5849086,50 19,50 C10.4140963,50 4,46.8312846 4,44 C4,41.1667242 10.4140963,38 19,38 Z M3.37761201,53 L0,53 C0,58.2886823 7.95315449,64 18.5004837,64 C29.0468455,64 37,58.2886823 37,53 C36.2071192,53 35.6124587,53 35.2160183,53 C34.8620988,53 34.3312195,53 33.6233805,53 C33.6233805,55.8336096 27.1557341,59.0028239 18.5004945,59.0028239 C9.84425517,59.0028239 3.37761201,55.8336168 3.37761201,53 Z M3.37761201,61 L0,61 C0,66.2886823 7.95315449,72 18.5004837,72 C29.0468455,72 37,66.2886823 37,61 L33.6233805,61 C33.6233805,63.8336096 27.1557341,67.0028239 18.5004945,67.0028239 C9.84425517,67.0028239 3.37761201,63.8336168 3.37761201,61 Z" id="形状"></path>
            </g>
        </g>
    </g>
</svg>