<?xml version="1.0" encoding="UTF-8"?>
<svg width="53px" height="53px" viewBox="0 0 53 53" version="1.1" xmlns="http://www.w3.org/2000/svg" xmlns:xlink="http://www.w3.org/1999/xlink">
    <!-- Generator: Sketch 61 (89581) - https://sketch.com -->
    <title>i图标白色</title>
    <desc>Created with Sketch.</desc>
    <g id="第一批" stroke="none" stroke-width="1" fill="none" fill-rule="evenodd">
        <g id="确认订单-现场取货" transform="translate(-667.000000, -190.000000)" fill="#FFFFFF">
            <g id="Group" transform="translate(667.000000, 190.000000)">
                <path d="M25.5,3 C37.9264069,3 48,13.0735931 48,25.5 C48,37.9264069 37.9264069,48 25.5,48 C13.0735931,48 3,37.9264069 3,25.5 C3,13.0735931 13.0735931,3 25.5,3 Z M27.75,19.875 L21,19.875 L21,21 L23.25,21 L23.25,37.875 L21,37.875 L21,39 L30,39 L30,37.875 L27.75,37.875 L27.75,19.875 Z M24.9375,10.875 C23.3841991,10.875 22.125,12.1341991 22.125,13.6875 C22.125,15.2408009 23.3841991,16.5 24.9375,16.5 C26.4908009,16.5 27.75,15.2408009 27.75,13.6875 C27.75,12.1341991 26.4908009,10.875 24.9375,10.875 Z" id="45_Detail-Disclosure"></path>
            </g>
        </g>
    </g>
</svg>