<?xml version="1.0" encoding="UTF-8"?>
<svg width="55px" height="53px" viewBox="0 0 55 53" version="1.1" xmlns="http://www.w3.org/2000/svg" xmlns:xlink="http://www.w3.org/1999/xlink">
    <!-- Generator: Sketch 61 (89581) - https://sketch.com -->
    <title>导航图标-首页</title>
    <desc>Created with Sketch.</desc>
    <g id="第一批" stroke="none" stroke-width="1" fill="none" fill-rule="evenodd">
        <g id="首页" transform="translate(-72.000000, -5273.000000)">
            <g id="编组-10" transform="translate(0.000000, 5256.000000)">
                <g id="Group-3" transform="translate(72.000000, 17.000000)">
                    <path d="M44.0186241,30.1810792 C45.0008676,30.1810792 46,31.0093214 46,32.0330165 L46,32.0330165 L46,50.14819 C46,51.1718214 45.0008677,52 44.0186853,52 L44.0186853,52 L12.881738,52 C11.8977214,52 11.1015936,51.1718214 11.1015936,50.14819 L11.1015936,50.14819 L11.1015936,32.0330165 C11.1015936,31.0093213 12.0419625,30.1810792 13.0259791,30.1810792 C14.0100568,30.1810792 15.0083345,31.0093214 15.0083345,32.0330165 L15.0083345,32.0330165 L15.0083345,48.0280257 L42.0237959,48.0280257 L42.0237959,32.0330165 C42.0237959,31.0093213 43.0364417,30.1810792 44.0186241,30.1810792 Z M26.7405471,2.54252022 C27.4359131,1.81915993 28.5623902,1.81915993 29.2577562,2.54252022 L29.2577562,2.54252022 L52.4783838,26.6979718 C53.1738721,27.4213957 53.1738721,28.9601506 52.4783838,29.683511 C52.1307313,30.0452229 51.285473,30.5301875 49.9611746,30.1810792 L49.9611746,30.1810792 L27.9990905,7.33496512 L6.03890182,30.1810791 C4.57173641,30.4738308 3.86928396,30.0452866 3.52157039,29.683511 C2.8261432,28.9601507 2.8261432,27.4213957 3.52157039,26.6979718 L3.52157039,26.6979718 Z" id="GR200" fill="#000000"></path>
                    <polygon id="路径" fill="#E6001B" fill-rule="nonzero" points="18 47.9114471 18 42.0517611 38.8500486 42 38.8500486 47.911399"></polygon>
                </g>
            </g>
        </g>
    </g>
</svg>