<?xml version="1.0" encoding="UTF-8"?>
<svg width="55px" height="53px" viewBox="0 0 55 53" version="1.1" xmlns="http://www.w3.org/2000/svg" xmlns:xlink="http://www.w3.org/1999/xlink">
    <!-- Generator: Sketch 61 (89581) - https://sketch.com -->
    <title>导航图标-我的</title>
    <desc>Created with Sketch.</desc>
    <g id="第一批" stroke="none" stroke-width="1" fill="none" fill-rule="evenodd">
        <g id="首页" transform="translate(-629.000000, -5274.000000)" fill-rule="nonzero">
            <g id="编组-10" transform="translate(0.000000, 5256.000000)">
                <g id="Group-6" transform="translate(629.000000, 18.000000)">
                    <path d="M39.0784359,31.418269 L38.8150161,31.2280632 C38.563452,31.0724638 38.2793464,30.9872392 37.9869664,30.9872392 C37.2684878,30.9872392 36.7571424,31.2462865 36.5241544,31.7041993 C36.4313746,31.8865482 36.0201468,33.0392528 36.5899696,33.6085564 L36.818378,33.7901752 C40.493165,36.536925 44.6149689,40.6711415 45.0202255,46.1426894 L45.0245479,46.2022175 C45.0209047,46.2483808 45.0187435,46.2945441 45.0187435,46.3414177 C45.0187435,47.2659753 46.0605659,48.0543674 46.945054,48.0543674 C47.7996556,48.0543674 48.4976626,47.3542344 48.5435419,46.4725473 L48.5543478,46.1355873 C48.1850907,40.3702083 43.4601835,35.0060951 39.0784359,31.418269 Z M26.7873006,3 C18.7308278,3 12.1767618,9.77186857 12.1767618,18.0950828 C12.1767618,22.5795104 14.0731254,26.7628111 17.3971799,29.6467596 C11.4302203,32.9766523 5.4695987,39.328596 5.02124156,46.3414177 L5.0028951,46.6336993 C5,47.5050562 5.88679799,48.2219823 6.63642691,48.2219823 C7.38611757,48.2219823 8.5410998,47.6434815 8.5410998,46.8596089 C8.5410998,46.8500535 8.55725736,46.7386804 8.58957249,46.5254898 C8.8072998,43.5766654 10.5935952,39.6768771 13.1714227,37.0298648 C15.7964603,34.3343754 18.9990205,32.2175345 20.2764202,31.6820778 C20.5796636,31.5549651 20.907534,31.860163 20.940639,31.8739796 C22.6101714,32.5707721 24.7946088,33.1912633 26.7861275,33.1912633 C28.973142,33.1912633 31.0969259,32.6873406 33.1191949,31.6820778 L34.6004221,30.7829584 L35.8100786,29.9529225 C39.3606273,27.0629695 41.3976543,22.7402104 41.3976543,18.0950828 C41.3976543,9.77186852 34.8438353,3 26.7873006,3 Z M16.0028919,17.9988513 C16.0028919,11.9342062 20.9368754,7 27.0021937,7 C33.0682102,7 38.0028919,11.9342062 38.0028919,17.9988513 C38.0028919,24.0643801 33.0682102,29 27.0021937,29 C20.9368754,29 16.0028919,24.0643801 16.0028919,17.9988513 Z" id="GX206" fill="#000000"></path>
                    <polygon id="路径备份" fill="#E6001B" points="25 46.9114471 25 38.0780294 29.8500486 38 29.8500486 46.9113746"></polygon>
                </g>
            </g>
        </g>
    </g>
</svg>