<?xml version="1.0" encoding="UTF-8"?>
<svg width="55px" height="53px" viewBox="0 0 55 53" version="1.1" xmlns="http://www.w3.org/2000/svg" xmlns:xlink="http://www.w3.org/1999/xlink">
    <!-- Generator: Sketch 61 (89581) - https://sketch.com -->
    <title>导航图标-家博会</title>
    <desc>Created with Sketch.</desc>
    <g id="第一批" stroke="none" stroke-width="1" fill="none" fill-rule="evenodd">
        <g id="首页" transform="translate(-250.000000, -5275.000000)" fill-rule="nonzero">
            <g id="编组-10" transform="translate(0.000000, 5256.000000)">
                <g id="Group-4" transform="translate(250.000000, 19.000000)">
                    <path d="M37.0009499,39.0005795 C35.8965154,39.0003648 35.0010202,39.8955131 35.0008054,40.9999477 L35.0008054,45.0007896 C35.0008054,49.4192213 31.4190396,53.0009871 27.0006079,53.0009871 C22.5821762,53.0009871 19.0004104,49.4192213 19.0004104,45.0007896 L19.0004104,41.000727 C19.0004104,39.8962924 18.1050862,39.0009681 17.0006516,39.0009681 L9.00045416,39.0009681 C5.68643752,39.0009681 2.99999576,36.3145462 2.99999576,33.0009055 L2.99999576,22.0003174 C2.99930548,20.5758528 3.76276903,19.2603548 5.00004299,18.5542381 L5.00004299,6.00029396 C5.00004325,3.79205966 6.79026172,2.00101564 8.99927737,2 L44.9999462,2 C47.209162,2 49.0002402,3.7910782 49.0002402,6.00029404 L49.0002402,18.5545312 C50.2373239,19.26077 51.0006486,20.5761899 50.9999958,22.0006744 L50.9999958,33.0004812 C50.9999958,36.3141072 48.3139678,39.0005438 44.9999365,39.0005438 L37.0009499,39.0005795 Z M39.0006941,6.00031077 L39.0006941,12.0003777 C38.9853009,13.1049154 38.0774153,13.9878469 36.9728684,13.9724511 C35.8900309,13.9573603 35.0158789,13.0832109 35.0007907,12.0003734 L35.0007907,6.00031077 L29.0007281,6.00031077 L29.0007281,12.0003734 C29.0007281,13.1049154 28.1053208,14.0003227 27.0007788,14.0003227 C25.8962368,14.0003227 25.0008295,13.1049154 25.0008295,12.0003734 L25.0008295,6.00031077 L19.0003763,6.00031077 L19.0003763,12.0003734 C19.0003763,13.1049154 18.104969,14.0003227 17.000427,14.0003227 C15.895885,14.0003227 15.0004777,13.1049154 15.0004777,12.0003734 L15.0004777,6.00031077 L9.0004151,6.00031077 L9.0004151,18.0003872 L45.0010839,18.0003872 L45.0010839,6.00031077 L39.0006941,6.00031077 Z M7.00030464,22.0003191 L7.00030464,33.0005168 C7.00030464,34.105166 7.89579979,35.0006611 9.00044922,35.0006611 L17.0006467,35.0006611 C20.3142727,35.0006611 23.0007094,37.6870831 23.0007094,41.0007238 L23.0007094,45.0011771 C23.0007094,47.2100023 24.7917876,49.0010805 27.0010034,49.0010805 C29.2102193,49.0010805 31.0009068,47.2100023 31.0009068,45.0011771 L31.0009068,41.0007238 C31.0009068,37.6870978 33.6873288,35.0006611 37.0013601,35.0006611 L45.0015575,35.0006611 C46.1060556,35.0004466 47.0013164,34.1050146 47.0013164,33.0005166 L47.0013164,22.0003191 L7.00030464,22.0003191 Z" id="形状" fill="#000000"></path>
                    <polygon id="路径" fill="#E6001B" points="16 27.9114471 16 22.0517611 37.8500486 22 37.8500486 27.911399"></polygon>
                </g>
            </g>
        </g>
    </g>
</svg>