<?xml version="1.0" encoding="UTF-8"?>
<svg width="84px" height="85px" viewBox="0 0 84 85" version="1.1" xmlns="http://www.w3.org/2000/svg" xmlns:xlink="http://www.w3.org/1999/xlink">
    <!-- Generator: Sketch 61.2 (89653) - https://sketch.com -->
    <title>icon邀请好友到场</title>
    <desc>Created with Sketch.</desc>
    <defs>
        <linearGradient x1="50%" y1="0%" x2="50%" y2="100%" id="linearGradient-1">
            <stop stop-color="#FEFAED" offset="0%"></stop>
            <stop stop-color="#F2ECDA" offset="100%"></stop>
        </linearGradient>
        <linearGradient x1="50%" y1="0%" x2="50%" y2="100%" id="linearGradient-2">
            <stop stop-color="#E2D49E" offset="0%"></stop>
            <stop stop-color="#D1BE81" offset="100%"></stop>
        </linearGradient>
    </defs>
    <g id="第二批2部分" stroke="none" stroke-width="1" fill="none" fill-rule="evenodd">
        <g id="积分中心备份" transform="translate(-30.000000, -1712.000000)" fill-rule="nonzero">
            <g id="编组-6备份-10" transform="translate(0.000000, 1710.000000)">
                <path d="M71.768617,4 C94.8367872,4 113.537234,22.7004468 113.537234,45.768617 C113.537234,60.6911068 105.576181,74.4800561 92.6529257,81.941301 C79.7296705,89.4025459 63.8075635,89.4025459 50.8843083,81.941301 C37.9610532,74.4800561 30,60.6911068 30,45.7686171 C30,22.7004468 48.7004468,4 71.768617,4 Z" id="路径" fill="url(#linearGradient-1)"></path>
                <g id="邀请" transform="translate(51.000000, 24.000000)" fill="url(#linearGradient-2)">
                    <path d="M25.4015647,43.2046987 C23.001869,43.577007 20.4058831,43.7986994 17.8876966,43.7986994 C9.53447594,43.7986994 0.252140918,42.9440843 0.252140918,38.9586938 C0.252140918,38.9586938 0.252140918,36.3846908 0.252140918,36.1139229 C0.252140918,32.4416116 5.87228808,29.0468443 11.9866194,27.8707024 C11.9866194,27.8707024 13.8329286,26.8891618 13.3861605,25.0293131 C11.4450793,22.6837709 11.0355437,20.1960965 11.0355437,20.1960965 C10.7021587,20.0505578 10.2266217,19.7645566 9.92877483,19.373635 C9.24508107,18.446248 8.61554088,16.4442457 8.75261995,15.0480949 C8.89477406,13.6011721 9.28400651,14.0614796 9.32969953,13.8279399 C8.10108404,10.6937828 8.68661987,6.85560759 10.2604682,4.04299885 C13.4166254,-1.59747256 20.1858743,0.0626871823 21.2638755,2.17976426 C27.7437424,0.974841759 27.4594179,11.0677746 26.5794169,13.756848 C26.5794169,13.756848 27.1683386,13.8719249 27.0380315,16.3376186 C26.9161853,18.810082 24.8227965,20.4567023 24.8227965,20.4567023 C24.7567964,21.1336242 23.9309489,23.2050125 22.5720263,25.0293131 C22.3147953,25.5708532 22.2555645,26.0074678 22.2995645,26.3696217 C21.0794096,28.3225451 20.3618693,30.6207056 20.3618693,33.0880944 C20.3669463,37.2139456 22.3486392,40.8761034 25.401551,43.2047116 L25.4015647,43.2046987 Z M43.7495861,33.0880815 C43.7495861,38.9874829 38.9671157,43.7716291 33.0660385,43.7716291 C27.1649613,43.7716291 22.3824909,38.9891587 22.3824909,33.0880815 C22.3824909,27.1870043 27.1666371,22.4045339 33.0660385,22.4045339 C38.9654399,22.4045339 43.7495861,27.1870043 43.7495861,33.0880815 Z M40.1195818,33.096543 L34.1101803,27.8910018 C34.1101803,27.8910018 33.3097188,27.5897707 33.3097188,28.6660816 C33.3097188,28.9690052 33.3097188,29.7356223 33.3097188,30.6917769 L26.8112464,30.6917769 C26.36786,30.6917769 26.010785,31.0505467 26.010785,31.4939314 L26.010785,34.6991675 C26.010785,35.139168 26.3678621,35.501322 26.8112464,35.501322 L33.3097188,35.501322 C33.3097188,36.4964021 33.3097188,37.2697846 33.3097188,37.5033243 C33.3097188,38.528865 34.1101803,38.3037858 34.1101803,38.3037858 L40.1195818,33.0965688 L40.1195818,33.096543 Z" id="形状"></path>
                </g>
            </g>
        </g>
    </g>
</svg>