<?xml version="1.0" encoding="UTF-8"?>
<svg width="84px" height="85px" viewBox="0 0 84 85" version="1.1" xmlns="http://www.w3.org/2000/svg" xmlns:xlink="http://www.w3.org/1999/xlink">
    <!-- Generator: Sketch 61.2 (89653) - https://sketch.com -->
    <title>icon裂变分享</title>
    <desc>Created with Sketch.</desc>
    <defs>
        <linearGradient x1="50%" y1="0%" x2="50%" y2="100%" id="linearGradient-1">
            <stop stop-color="#FDF4F5" offset="0%"></stop>
            <stop stop-color="#FAE6E8" offset="100%"></stop>
        </linearGradient>
    </defs>
    <g id="第二批2部分" stroke="none" stroke-width="1" fill="none" fill-rule="evenodd">
        <g id="积分中心备份" transform="translate(-30.000000, -1398.000000)" fill-rule="nonzero">
            <g id="编组-6备份-8" transform="translate(0.000000, 1396.000000)">
                <path d="M71.768617,3.5 C94.8367872,3.5 113.537234,22.2004468 113.537234,45.268617 C113.537234,60.1911068 105.576181,73.9800561 92.6529257,81.441301 C79.7296705,88.9025459 63.8075635,88.9025459 50.8843083,81.441301 C37.9610532,73.9800561 30,60.1911068 30,45.2686171 C30,22.2004468 48.7004468,3.5 71.768617,3.5 Z" id="路径" fill="url(#linearGradient-1)"></path>
                <g id="裂变方案" transform="translate(53.000000, 23.000000)">
                    <path d="M0.548389285,22.1290437 L0.548389285,22.1290465 C0.548389285,32.319613 8.80948484,40.5806656 19.0000084,40.5806656 C29.190575,40.5806656 37.4516275,32.3195701 37.4516275,22.1290465 L37.4516275,22.1290465 C37.4516275,11.9384799 29.190532,3.67742736 19.0000084,3.67742736 C8.80944187,3.67742736 0.548389285,11.9385229 0.548389285,22.1290465 L0.548389285,22.1290437 Z" id="路径" fill="#EC587B"></path>
                    <path d="M20.2121754,30.0632756 L13.8946017,25.7739796 L13.8946017,25.7739796 C11.3874926,27.6570915 7.82852436,27.1512456 5.9454167,24.6441364 C4.06230474,22.1370273 4.56815065,18.5780591 7.07525981,16.6949514 C9.11370828,15.1638528 11.922785,15.1792871 13.9442952,16.7326933 L22.1325586,12.3710164 L22.1325584,12.3710158 C20.5238022,7.88967071 22.8524748,2.9526845 27.3338027,1.34393263 C31.8151478,-0.264823541 36.752134,2.06384909 38.3608859,6.54517696 C39.969642,11.026522 37.6409694,15.9635082 33.1596415,17.5722601 C29.6330976,18.8382585 25.6926094,17.6814743 23.4099778,14.7101169 L15.6375664,18.8517979 C15.9739537,19.5756718 16.1613088,20.3847013 16.1613088,21.2363171 C16.1613088,22.1943838 15.9242762,23.0970939 15.5041483,23.8905128 L21.5577218,28.2295022 L21.5577218,28.2295022 C23.3860958,26.7970857 26.0294848,27.1180712 27.4618927,28.9464409 C28.8943092,30.7748149 28.5733237,33.4182039 26.744954,34.8506119 C24.91658,36.2830284 22.2731909,35.9620428 20.840783,34.1336731 C19.9362339,32.97908 19.6985606,31.436629 20.2135932,30.0632989 L20.2121754,30.0632756 Z" id="路径" fill="#DC0522"></path>
                </g>
            </g>
        </g>
    </g>
</svg>