<?xml version="1.0" encoding="UTF-8"?>
<svg width="84px" height="85px" viewBox="0 0 84 85" version="1.1" xmlns="http://www.w3.org/2000/svg" xmlns:xlink="http://www.w3.org/1999/xlink">
    <!-- Generator: Sketch 61.2 (89653) - https://sketch.com -->
    <title>iocn关注公众号</title>
    <desc>Created with Sketch.</desc>
    <g id="第二批2部分" stroke="none" stroke-width="1" fill="none" fill-rule="evenodd">
        <g id="积分中心备份" transform="translate(-30.000000, -927.000000)" fill-rule="nonzero">
            <g id="编组-6备份-5" transform="translate(0.000000, 925.000000)">
                <path d="M71.768617,3.5 C94.8367872,3.5 113.537234,22.2004468 113.537234,45.268617 C113.537234,60.1911068 105.576181,73.9800561 92.6529257,81.441301 C79.7296705,88.9025459 63.8075635,88.9025459 50.8843083,81.441301 C37.9610532,73.9800561 30,60.1911068 30,45.2686171 C30,22.2004468 48.7004468,3.5 71.768617,3.5 Z" id="路径" fill="#D9F4DA"></path>
                <path d="M77.1260316,50.0720327 C77.1260316,46.1780281 83.1980386,43.7140253 83.1980386,34.6720147 C83.1980386,27.0380059 78.2260328,22.6600008 72.0220256,22.6600008 C65.8180184,22.6600008 60.8460126,27.0380059 60.8460126,34.6720147 C60.8460126,43.7140253 66.9180197,46.1780281 66.9180197,50.0720327 C66.9180197,56.38604 53.1900037,54.648038 53.1900037,60.7860451 C53.1900037,65.9340511 58.4260098,65.3620505 58.4260098,65.3620505 L85.6180414,65.3620505 C87.7300439,65.3620505 90.8540475,64.4380494 90.8540475,60.7860451 C90.8540475,54.648038 77.1260316,56.38604 77.1260316,50.0720327 Z M72.0000256,63.1400479 L68.6780217,58.6520426 L70.9000243,50.7760335 L73.1000269,50.7760335 L75.3220295,58.6520426 L72.0000256,63.1400479 L72.0000256,63.1400479 Z" id="形状" fill="#3AD256"></path>
            </g>
        </g>
    </g>
</svg>